<?xml version="1.0" encoding="utf-8"?>
<!-- Generator: Adobe Illustrator 25.2.1, SVG Export Plug-In . SVG Version: 6.00 Build 0)  -->
<svg version="1.1" xmlns="http://www.w3.org/2000/svg" xmlns:xlink="http://www.w3.org/1999/xlink" x="0px" y="0px"
	 viewBox="0 0 640 480" style="enable-background:new 0 0 640 480;" xml:space="preserve">
<style type="text/css">
	.st0{fill:none;}
	.st1{fill:#FFFFFF;}
	.st2{fill:#444444;}
	.st3{fill:#040302;}
	.st4{fill:#353535;}
	.st5{fill:url(#SVGID_1_);}
	.st6{fill:url(#SVGID_2_);}
	.st7{fill:url(#SVGID_3_);}
	.st8{opacity:0.15;enable-background:new    ;}
	.st9{opacity:0.15;fill:url(#SVGID_4_);enable-background:new    ;}
</style>
<g id="action_icon">
	<g id="submit">
		<path d="M6.2,40.6l1.1-1.1l6.6,5.5l-6.6,5.5l-1.1-1.1l5.3-4.4L6.2,40.6z"/>
		<rect y="30" class="st0" width="20" height="30"/>
	</g>
</g>
<g id="search_icon_1_">
	<g id="wikipedia">
		<rect x="90" class="st0" width="30" height="30"/>
		<path d="M108.3,22.1l-2.8-6.6c-1.1,2.2-2.3,4.5-3.4,6.6h-0.5c-1.6-3.8-3.3-7.5-4.9-11.3c-0.4-0.9-1.7-2.4-2.6-2.4
			c0-0.1,0-0.3,0-0.5h5.6v0.5c-0.7,0-1.8,0.5-1.5,1.2c0.8,1.7,3.6,8.3,4.3,9.9c0.5-1,2-3.8,2.6-4.9c-0.5-1-2-4.6-2.5-5.5
			c-0.3-0.6-1.2-0.7-1.9-0.7V7.9h4.9v0.4c-0.7,0-1.3,0.3-1,0.9c0.7,1.4,1.1,2.3,1.7,3.6c0.2-0.4,1.2-2.4,1.7-3.5
			c0.3-0.7-0.1-1-1.3-1c0-0.1,0-0.3,0-0.5c1.5,0,3.8,0,4.2,0v0.5c-0.8,0-1.6,0.5-2,1.1l-2,4.2c0.2,0.6,2.2,4.9,2.4,5.4l4.2-9.7
			c-0.3-0.8-1.2-1-1.6-1V7.9l4.4,0v0v0.4c-1,0-1.5,0.5-1.9,1.4c-0.9,2-3.5,8.2-5.3,12.3H108.3L108.3,22.1z"/>
	</g>
	<g id="dogedoge">
		<rect x="60" class="st0" width="30" height="30"/>
		<g>
			<path class="st1" d="M67.2,18.1l-0.1,1.4c0,0,0,4.7,7.2,4.7c7.2,0,7.2-3.2,7.1-4.8c-0.1-1.6,0-1.3,0-1.3s-0.1-3.8-7.2-3.8
				S67.2,18.1,67.2,18.1z"/>
			<path d="M79.7,23.8c0,0,1.6-0.7,1.7-2.6c0.2,0.2,0.4,0.2,0.6,0.3c0.3,0,0.6-0.2,0.8-0.6c0-0.5,0-2,0-2s-0.4,0-0.8,0
				c-0.6,0.3-0.6,0.5-0.6,0.6c0,1-0.6,2.7-2.5,2.9c-1.6,0-2.5,0-2.5,0s-0.7,1.4-2.2,1.4c-1.5,0-2.2-1.5-2.2-1.5s-2.9,0-3.3-0.2
				c-0.2-0.1-1.5-0.5-1.7-2.7c0,1.6-0.4,3.5,2.4,4.6l4.9,1.9L79.7,23.8z"/>
			<path class="st2" d="M80,4.4c0.1,0.7,0.1,1.5,0.2,2.3c0.1,1.2,0.2,2.3,0.3,3.5c0,0.4,0.1,0.7,0.3,1.1c0.4,0.6,0.5,1.4,0.5,2.1
				c0.1,1.1,0.1,2.2,0.1,3.3c0,0.5,0,1,0.1,1.5c-0.2-0.3-0.2-0.6-0.4-0.8c-0.5-0.8-1.2-1.5-2.4-1.2c-0.6,0.1-1.2,0.4-1.7,0.6
				c-0.8,0.4-1.6,0.9-2.4,1.4c-0.2,0.1-0.4,0.1-0.6,0c-0.3-0.2-0.5-0.4-0.8-0.5c-0.3-0.2-1.6-1.3-3.1-1.5c-0.5-0.1-1.2-0.2-1.9,0.3
				c-0.8,0.6-1,1.5-1.1,1.6c0-0.5,0.1-1.1,0.1-1.4c0.1-1.5,0.1-2.1,0.1-3.3c0.1-1.2,0.5-2.2,1.1-3.2c0.1-0.2,0.2-0.3,0.1-0.5
				c-0.2-0.9-0.4-1.8-0.6-2.7c-0.1-0.4,0.2-0.6,0.6-0.5c1.1,0.5,2,0.8,3,1.2c0.2,0.1,0.4,0.1,0.5,0c1-0.4,2-0.5,3.1-0.4
				c0.1,0,0.2,0,0.3-0.1c1.4-1,2.7-2.1,4-3.1c0,0,0.1-0.1,0.3-0.1C79.8,4,80,4.2,80,4.4z"/>
			<path d="M76.8,7.8c-0.1,0-0.1-0.1,0-0.2c0.5-0.4,0.8-0.7,1.2-1c0.3-0.3,0.5-0.6,0.7-0.7c0.1-0.1,0.2-0.2,0.3-0.1
				c0.1,0.1,0.2,0.2,0.2,0.3c0,0.7,0.1,1.6,0.1,2.3c0,0.3,0,0.5,0,0.6c0,0.1,0,0.1,0,0.2c-0.1,0-0.1,0-0.1-0.1
				C78.4,8.5,77.7,8,76.8,7.8z"/>
			<path class="st3" d="M74.3,15.7c0.4,0,0.7,0.1,1,0.3c0.4,0.3,0.5,0.5,0.3,0.9c-0.2,0.5-0.5,0.7-1,0.9C74,18,72.9,17.3,73,16.6
				c0-0.2,0.1-0.4,0.3-0.5C73.6,15.8,74,15.7,74.3,15.7z"/>
			<path class="st1" d="M71.2,11.2c0.2,0,0.4,0.1,0.6,0.1c0.3,0.1,0.5,0.4,0.5,0.6c0,0.3-0.2,0.6-0.5,0.6c-0.4,0.1-0.7,0-1.1-0.2
				c-0.3-0.2-0.4-0.5-0.3-0.7C70.6,11.4,70.8,11.2,71.2,11.2z"/>
			<path class="st1" d="M77.1,11.2c0.5,0,0.7,0.3,0.7,0.6c0.1,0.4-0.2,0.6-0.5,0.7c-0.2,0.1-0.5,0.1-0.6,0.1c-0.4,0-0.6-0.3-0.7-0.6
				c-0.1-0.3,0.2-0.6,0.5-0.7C76.7,11.3,77,11.2,77.1,11.2z"/>
			<path class="st3" d="M77.3,13.3c0.1,0,0.6,0.1,0.7,0.3c0.1,0.3-0.2,0.6-0.4,0.7c-0.3,0.3-1,0.3-1.3-0.1c-0.1-0.2,0-0.3,0.1-0.4
				c0-0.1,0.1-0.1,0.2,0s0.2,0,0.3,0c0.1-0.1,0.1-0.2,0.1-0.3C76.9,13.2,77.3,13.3,77.3,13.3z"/>
			<path class="st3" d="M70.8,13.4c0.5,0,0.7,0.3,1,0.6c0.1,0.1,0.1,0.3-0.1,0.4c-0.1,0.1-0.3,0.1-0.4,0c-0.1-0.1-0.2-0.2-0.3-0.3
				c-0.3-0.2-0.4-0.2-0.5,0.1c0,0.1-0.1,0.1-0.1,0.2c-0.1,0.1-0.2,0.1-0.4,0.1c-0.1-0.1-0.2-0.2-0.2-0.3
				C70.1,13.7,70.5,13.4,70.8,13.4z"/>
			<path d="M69.3,9.2c0,0-0.2,0.2-0.3,0.3c-0.1,0.1-0.3,0.3-0.4,0.3c0,0,0-0.2,0-0.4c-0.1-0.5-0.2-1-0.4-1.5c0-0.1,0-0.1,0-0.2
				c0.1,0,0.1,0,0.1,0.1C68.7,8.3,69,8.8,69.3,9.2C69.4,9.2,69.4,9.2,69.3,9.2z"/>
			<path class="st4" d="M76.2,19.3c0,0.6,0.1,1.2-0.1,1.8c-0.1,0.6-0.7,1.2-1.5,1.3c-0.3,0-0.6,0-0.8,0c-0.7-0.2-1.2-0.8-1.3-1.6
				c0-0.5,0-0.9,0-1.4c0.1-0.1,0.2,0,0.3,0c0.9,0.1,1.7,0.1,2.7,0.1C75.8,19.3,76,19.2,76.2,19.3z"/>
			<path class="st3" d="M76.2,19.5c-0.2-0.1-0.5,0-0.6,0c-0.9,0.1-1.7,0.1-2.7-0.1c-0.1,0-0.2-0.1-0.3,0c-0.5-0.1-1-0.2-1.4-0.4
				c-0.2-0.1-0.4-0.2-0.4-0.5c0.9,0.6,1.9,0.5,2.9,0.4c0.3-0.1,0.5-0.2,0.6-0.4c0.2,0.2,0.4,0.3,0.6,0.4c0.7,0.2,1.6,0.2,2.3,0
				c0.3-0.1,0.5-0.2,0.6-0.4c0,0.3-0.1,0.4-0.3,0.5c-0.4,0.2-0.8,0.3-1.2,0.4C76.3,19.5,76.2,19.5,76.2,19.5z"/>
			<path class="st1" d="M74,16.1c0.1,0,0.2,0,0.2,0.2c-0.1,0.2-0.3,0.2-0.5,0.2c-0.1,0-0.2,0-0.2-0.1C73.6,16.1,73.9,16.2,74,16.1z"
				/>
			<g>
				<circle class="st4" cx="71.5" cy="17.8" r="0.1"/>
				<circle class="st4" cx="72.2" cy="17.8" r="0.1"/>
				<circle class="st4" cx="72.9" cy="17.8" r="0.1"/>
				<circle class="st4" cx="71.8" cy="18.2" r="0.1"/>
				<circle class="st4" cx="72.5" cy="18.2" r="0.1"/>
				<circle class="st4" cx="73.1" cy="18.2" r="0.1"/>
				<circle class="st4" cx="75.8" cy="17.8" r="0.1"/>
				<circle class="st4" cx="76.4" cy="17.8" r="0.1"/>
				<circle class="st4" cx="77.1" cy="17.8" r="0.1"/>
				<circle class="st4" cx="76.2" cy="18.2" r="0.1"/>
				<circle class="st4" cx="76.8" cy="18.2" r="0.1"/>
				<circle class="st4" cx="75.4" cy="18.2" r="0.1"/>
			</g>
		</g>
	</g>
	<g id="google_1_">
		<rect x="30" class="st0" width="30" height="30"/>
		<path d="M45.2,12.8v4.1l0,0h6c-0.3,1.7-1.8,4.7-6,4.7c-3.7,0-6.6-3-6.6-6.7s2.9-6.7,6.6-6.7c2,0,3.5,0.9,4.2,1.7l3.1-3
			C50.6,5.1,48.2,4,45.2,4c-6,0-11,4.9-11,11s5,11,11,11c6.3,0,10.5-4.5,10.5-10.7c0-0.9-0.1-1.6-0.3-2.3L45.2,12.8z"/>
	</g>
	<g id="baidu_1_">
		<rect class="st0" width="30" height="30"/>
		<g>
			<path d="M12.4,10.8c1.3,0,2.4-1.6,2.4-3.4S13.7,4,12.4,4c-1.3,0-2.4,1.6-2.4,3.4C10.1,9.3,11.1,10.8,12.4,10.8L12.4,10.8z"/>
			<path d="M18.1,11.1c1.7,0.3,2.9-1.7,3.1-3.1c0.3-1.5-0.9-3.1-2.2-3.4c-1.3-0.3-2.8,1.7-2.9,3C15.9,9.2,16.3,10.8,18.1,11.1
				L18.1,11.1z"/>
			<path d="M7.9,15.6c2.4-0.6,2.1-3.4,2-4c-0.1-1-1.3-2.7-2.8-2.5c-2,0.2-2.3,3-2.3,3C4.6,13.4,5.5,16.1,7.9,15.6L7.9,15.6z"/>
			<path d="M22.5,10.7c-2.1,0-2.4,1.9-2.4,3.3c0,1.3,0.1,3.1,2.8,3.1c2.7-0.1,2.3-2.9,2.3-3.7C25.1,12.7,24.6,10.7,22.5,10.7
				L22.5,10.7z"/>
			<path d="M10.5,20.6c-0.1,0.2-0.2,0.7-0.1,1.2c0.3,1,1.1,1,1.1,1h1.3v-3h-1.4C10.9,19.9,10.6,20.5,10.5,20.6L10.5,20.6z"/>
			<path d="M22.5,19.4c0,0-2.8-2.1-4.3-4.4c-2.2-3.4-5.2-2-6.2-0.3S9.2,17.6,9,17.9c-0.2,0.3-3.3,1.9-2.7,5s3.1,2.9,3.1,2.9
				s1.7,0.2,3.9-0.3c2-0.5,3.9,0.1,3.9,0.1s4.8,1.6,6.1-1.5C24.5,21.1,22.5,19.4,22.5,19.4L22.5,19.4z M14.3,24h-3.1
				c-1.4-0.3-1.9-1.2-1.9-1.4c-0.1-0.2-0.5-0.9-0.3-2.1c0.6-1.8,2.2-2,2.2-2h1.7v-2h1.4L14.3,24L14.3,24z M20.1,24h-3.6
				c-1.4-0.4-1.5-1.4-1.5-1.4v-4h1.5v3.6c0.1,0.4,0.6,0.5,0.6,0.5h1.5v-4h1.6L20.1,24z"/>
		</g>
	</g>
	<g id="图层_3">
		<rect x="120" class="st0" width="30" height="30"/>
		<g>
			<path d="M134.4,11.6C134.4,11.7,134.4,11.7,134.4,11.6c0,0.2,0,0.3,0.1,0.4l0,0.1l0.1,0.4l0.8,1.9l0.7,1.7
				c0.2,0.3,0.5,0.6,0.9,0.8l0.1,0c0,0,0,0,0,0l1.8,0.6v0l0.7,0.2l0,0c0,0,0,0,0,0c0.1,0,0.3,0.1,0.4,0.1c0.3,0.1,0.6,0.3,0.8,0.5
				c0.1,0.1,0.2,0.2,0.3,0.3c0.1,0.1,0.1,0.2,0.2,0.3c0.2,0.4,0.4,0.9,0.4,1.4c0,0.1,0,0.2,0,0.3c0,0,0,0.1,0,0.1v0c0,0,0,0.1,0,0.1
				c0,0,0,0.1,0,0.1c0,0,0,0,0,0c0,0,0,0.1,0,0.1c0,0,0,0.1,0,0.1c0,0,0,0.1,0,0.1c0,0,0,0.1,0,0.1c0,0.1-0.1,0.2-0.2,0.3
				c-0.1,0.1-0.2,0.3-0.3,0.4c0.8-0.9,1.4-2.1,1.6-3.4c0-0.2,0-0.4,0-0.6c0-0.1,0-0.3,0-0.4c-0.1-1.6-0.8-3-1.9-4
				c-0.3-0.3-0.6-0.5-1-0.7l-0.7-0.3l-3.4-1.7c-0.1,0-0.2-0.1-0.3-0.1C134.8,10.9,134.4,11.2,134.4,11.6L134.4,11.6z"/>
			
				<linearGradient id="SVGID_1_" gradientUnits="userSpaceOnUse" x1="23.9653" y1="599.2587" x2="26.2152" y2="596.7512" gradientTransform="matrix(3.1257 0 0 -3.1257 60.3758 1885.0132)">
				<stop  offset="0" style="stop-color:#0F0F0F"/>
				<stop  offset="0.25" style="stop-color:#131313"/>
				<stop  offset="0.5" style="stop-color:#181818"/>
				<stop  offset="0.75" style="stop-color:#1A1A1A"/>
				<stop  offset="1" style="stop-color:#1D1D1D"/>
			</linearGradient>
			<path class="st5" d="M134.4,11.6C134.4,11.7,134.4,11.7,134.4,11.6c0,0.2,0,0.3,0.1,0.4l0,0.1l0.1,0.4l0.8,1.9l0.7,1.7
				c0.2,0.3,0.5,0.6,0.9,0.8l0.1,0c0,0,0,0,0,0l1.8,0.6v0l0.7,0.2l0,0c0,0,0,0,0,0c0.1,0,0.3,0.1,0.4,0.1c0.3,0.1,0.6,0.3,0.8,0.5
				c0.1,0.1,0.2,0.2,0.3,0.3c0.1,0.1,0.1,0.2,0.2,0.3c0.2,0.4,0.4,0.9,0.4,1.4c0,0.1,0,0.2,0,0.3c0,0,0,0.1,0,0.1v0c0,0,0,0.1,0,0.1
				c0,0,0,0.1,0,0.1c0,0,0,0,0,0c0,0,0,0.1,0,0.1c0,0,0,0.1,0,0.1c0,0,0,0.1,0,0.1c0,0,0,0.1,0,0.1c0,0.1-0.1,0.2-0.2,0.3
				c-0.1,0.1-0.2,0.3-0.3,0.4c0.8-0.9,1.4-2.1,1.6-3.4c0-0.2,0-0.4,0-0.6c0-0.1,0-0.3,0-0.4c-0.1-1.6-0.8-3-1.9-4
				c-0.3-0.3-0.6-0.5-1-0.7l-0.7-0.3l-3.4-1.7c-0.1,0-0.2-0.1-0.3-0.1C134.8,10.9,134.4,11.2,134.4,11.6L134.4,11.6z"/>
			<path d="M128.4,4c-0.5,0-0.9,0.4-0.9,0.9v15.4c0,0.1,0,0.2,0,0.3c0,0.1,0,0.1,0,0.2c0.2,1.2,1.3,2.2,2.6,2.2
				c0.5,0,0.9-0.1,1.3-0.3c0,0,0,0,0,0l0.1-0.1l0.5-0.3l0.7-0.4l0-13.7c0-0.9-0.5-1.7-1.2-2.2c0,0,0,0,0,0l-2.7-1.8
				C128.7,4.1,128.6,4,128.4,4L128.4,4z"/>
			
				<linearGradient id="SVGID_2_" gradientUnits="userSpaceOnUse" x1="22.3489" y1="595.8325" x2="22.2765" y2="601.3968" gradientTransform="matrix(3.1257 0 0 -3.1257 60.3758 1885.0132)">
				<stop  offset="0" style="stop-color:#070707"/>
				<stop  offset="0.5" style="stop-color:#070707"/>
				<stop  offset="1" style="stop-color:#0B0B0B"/>
			</linearGradient>
			<path class="st6" d="M128.4,4c-0.5,0-0.9,0.4-0.9,0.9v15.4c0,0.1,0,0.2,0,0.3c0,0.1,0,0.1,0,0.2c0.2,1.2,1.3,2.2,2.6,2.2
				c0.5,0,0.9-0.1,1.3-0.3c0,0,0,0,0,0l0.1-0.1l0.5-0.3l0.7-0.4l0-13.7c0-0.9-0.5-1.7-1.2-2.2c0,0,0,0,0,0l-2.7-1.8
				C128.7,4.1,128.6,4,128.4,4L128.4,4z"/>
			<path d="M139,18l-6.2,3.7l-0.1,0.1v0l-0.7,0.4l-0.5,0.3l-0.1,0.1l0,0c-0.4,0.2-0.8,0.3-1.3,0.3c-1.3,0-2.4-0.9-2.6-2.2
				c0.1,0.9,0.4,1.7,0.9,2.5c1,1.5,2.6,2.6,4.4,2.7h1.1c1-0.1,1.9-0.5,2.7-1.1l1.4-0.8c0.6-0.4,2.3-1.4,2.8-1.9
				c0.1-0.1,0.2-0.2,0.3-0.4c0.1-0.1,0.1-0.2,0.2-0.3c0,0,0-0.1,0-0.1c0,0,0-0.1,0-0.1c0-0.1,0-0.1,0.1-0.2c0,0,0-0.1,0-0.1
				c0-0.2,0-0.3,0-0.5c0-0.5-0.1-1-0.4-1.4c-0.1-0.1-0.1-0.2-0.2-0.3c-0.1-0.1-0.2-0.2-0.3-0.3c-0.2-0.2-0.5-0.4-0.8-0.5
				c-0.1-0.1-0.3-0.1-0.4-0.1c0,0,0,0,0,0l0,0L139,18z"/>
			
				<linearGradient id="SVGID_3_" gradientUnits="userSpaceOnUse" x1="23.7305" y1="596.0646" x2="29.176" y2="596.0646" gradientTransform="matrix(3.1257 0 0 -3.1257 60.3758 1885.0132)">
				<stop  offset="0" style="stop-color:#1B1B1B"/>
				<stop  offset="0.5" style="stop-color:#080808"/>
				<stop  offset="1" style="stop-color:#070707"/>
			</linearGradient>
			<path class="st7" d="M139,18l-6.2,3.7l-0.1,0.1v0l-0.7,0.4l-0.5,0.3l-0.1,0.1l0,0c-0.4,0.2-0.8,0.3-1.3,0.3
				c-1.3,0-2.4-0.9-2.6-2.2c0.1,0.9,0.4,1.7,0.9,2.5c1,1.5,2.6,2.6,4.4,2.7h1.1c1-0.1,1.9-0.5,2.7-1.1l1.4-0.8
				c0.6-0.4,2.3-1.4,2.8-1.9c0.1-0.1,0.2-0.2,0.3-0.4c0.1-0.1,0.1-0.2,0.2-0.3c0,0,0-0.1,0-0.1c0,0,0-0.1,0-0.1c0-0.1,0-0.1,0.1-0.2
				c0,0,0-0.1,0-0.1c0-0.2,0-0.3,0-0.5c0-0.5-0.1-1-0.4-1.4c-0.1-0.1-0.1-0.2-0.2-0.3c-0.1-0.1-0.2-0.2-0.3-0.3
				c-0.2-0.2-0.5-0.4-0.8-0.5c-0.1-0.1-0.3-0.1-0.4-0.1c0,0,0,0,0,0l0,0L139,18z"/>
			<path class="st8" d="M141.6,20.4c0,0.2,0,0.3,0,0.5c0,0,0,0.1,0,0.1c0,0.1,0,0.2-0.1,0.2c0,0,0,0.1,0,0.1c0,0,0,0.1,0,0.1
				c0,0.1-0.1,0.2-0.2,0.3c-0.1,0.1-0.2,0.3-0.3,0.4c-0.5,0.5-2.2,1.5-2.8,1.9l-1.4,0.8c-1,0.6-1.9,1.1-3.1,1.1c-0.1,0-0.1,0-0.2,0
				c-0.1,0-0.2,0-0.2,0c-2-0.1-3.8-1.2-4.8-2.8c-0.5-0.7-0.8-1.6-0.9-2.5c0.2,1.2,1.3,2.2,2.6,2.2c0.5,0,0.9-0.1,1.3-0.3l0,0
				l0.1-0.1l0.5-0.3l0.7-0.4v0l0.1-0.1L139,18l0.5-0.3l0,0c0,0,0,0,0,0c0.1,0,0.3,0.1,0.4,0.1c0.3,0.1,0.6,0.3,0.8,0.5
				c0.1,0.1,0.2,0.2,0.3,0.3c0.1,0.1,0.1,0.2,0.2,0.3C141.4,19.4,141.6,19.9,141.6,20.4L141.6,20.4z"/>
			
				<linearGradient id="SVGID_4_" gradientUnits="userSpaceOnUse" x1="23.7305" y1="596.0601" x2="29.176" y2="596.0601" gradientTransform="matrix(3.1257 0 0 -3.1257 60.3758 1885.0132)">
				<stop  offset="0" style="stop-color:#4D4D4D"/>
				<stop  offset="1" style="stop-color:#000000"/>
			</linearGradient>
			<path class="st9" d="M141.6,20.4c0,0.2,0,0.3,0,0.5c0,0,0,0.1,0,0.1c0,0.1,0,0.2-0.1,0.2c0,0,0,0.1,0,0.1c0,0,0,0.1,0,0.1
				c0,0.1-0.1,0.2-0.2,0.3c-0.1,0.1-0.2,0.3-0.3,0.4c-0.5,0.5-2.2,1.5-2.8,1.9l-1.4,0.8c-1,0.6-1.9,1.1-3.1,1.1c-0.1,0-0.1,0-0.2,0
				c-0.1,0-0.2,0-0.2,0c-2-0.1-3.8-1.2-4.8-2.8c-0.5-0.7-0.8-1.6-0.9-2.5c0.2,1.2,1.3,2.2,2.6,2.2c0.5,0,0.9-0.1,1.3-0.3l0,0
				l0.1-0.1l0.5-0.3l0.7-0.4v0l0.1-0.1L139,18l0.5-0.3l0,0c0,0,0,0,0,0c0.1,0,0.3,0.1,0.4,0.1c0.3,0.1,0.6,0.3,0.8,0.5
				c0.1,0.1,0.2,0.2,0.3,0.3c0.1,0.1,0.1,0.2,0.2,0.3C141.4,19.4,141.6,19.9,141.6,20.4L141.6,20.4z"/>
		</g>
	</g>
</g>
</svg>
