<?xml version="1.0" encoding="utf-8"?>
<svg version="1.1" width="100" height="100" xmlns="http://www.w3.org/2000/svg">
<style type="text/css">
	.st0{fill:#6AB344;}
</style>
<g id="android">
	<path class="st0" d="M17.5,34.2c-1.6,0-2.9,0.5-3.9,1.6s-1.6,2.4-1.6,3.9v23.3c0,1.6,0.5,2.9,1.6,3.9c1.1,1.1,2.4,1.6,3.9,1.6
		c1.5,0,2.9-0.5,3.9-1.6c1.1-1.1,1.6-2.4,1.6-3.9V39.7c0-1.5-0.5-2.8-1.6-3.9S19,34.2,17.5,34.2z"/>
	<path class="st0" d="M62.3,13.3l3.8-7.1c0.3-0.5,0.2-0.8-0.3-1.1C65.4,4.9,65,5,64.8,5.4l-3.9,7.1c-3.4-1.5-7.1-2.3-10.9-2.3
		c-3.8,0-7.4,0.8-10.9,2.3l-3.9-7.1C35,5,34.6,4.9,34.2,5.1c-0.4,0.3-0.5,0.6-0.3,1.1l3.8,7.1c-3.9,2-7,4.8-9.3,8.3
		C26.1,25.1,25,29,25,33.2h50c0-4.2-1.2-8.1-3.5-11.7C69.2,18,66.1,15.3,62.3,13.3z M40.1,23.6c-0.4,0.4-0.9,0.6-1.5,0.6
		c-0.6,0-1.1-0.2-1.5-0.6c-0.4-0.4-0.6-0.9-0.6-1.5c0-0.6,0.2-1.1,0.6-1.5c0.4-0.4,0.9-0.6,1.5-0.6s1.1,0.2,1.5,0.6
		c0.4,0.4,0.6,0.9,0.6,1.5C40.7,22.7,40.5,23.2,40.1,23.6z M62.9,23.6c-0.4,0.4-0.9,0.6-1.5,0.6c-0.6,0-1.1-0.2-1.5-0.6
		c-0.4-0.4-0.6-0.9-0.6-1.5c0-0.6,0.2-1.1,0.6-1.5c0.4-0.4,0.9-0.6,1.5-0.6c0.6,0,1.1,0.2,1.5,0.6c0.4,0.4,0.6,0.9,0.6,1.5
		C63.5,22.7,63.3,23.2,62.9,23.6z"/>
	<path class="st0" d="M25.2,71.2c0,1.7,0.6,3.1,1.7,4.2c1.2,1.2,2.6,1.7,4.2,1.7h4l0.1,12.3c0,1.6,0.5,2.9,1.6,3.9
		c1.1,1.1,2.4,1.6,3.9,1.6c1.5,0,2.9-0.5,3.9-1.6c1.1-1.1,1.6-2.4,1.6-3.9V77.2h7.5v12.3c0,1.6,0.5,2.9,1.6,3.9
		c1.1,1.1,2.4,1.6,3.9,1.6c1.5,0,2.9-0.5,3.9-1.6c1.1-1.1,1.6-2.4,1.6-3.9V77.2h4.1c1.6,0,3-0.6,4.2-1.7c1.2-1.2,1.7-2.6,1.7-4.2
		v-36H25.2V71.2z"/>
	<path class="st0" d="M82.5,34.2c-1.5,0-2.8,0.5-3.9,1.6c-1.1,1.1-1.6,2.4-1.6,3.9v23.3c0,1.6,0.5,2.9,1.6,3.9s2.4,1.6,3.9,1.6
		c1.5,0,2.9-0.5,3.9-1.6s1.6-2.4,1.6-3.9V39.7c0-1.5-0.5-2.9-1.6-3.9C85.4,34.7,84.1,34.2,82.5,34.2z"/>
</g>
</svg>
