<?xml version="1.0" encoding="utf-8"?>
<svg version="1.1" width="100" height="100" xmlns="http://www.w3.org/2000/svg">
<style type="text/css">
	.st0{fill:#06A7FF;}
	.st1{fill:#FF436A;}
</style>
<g id="baidupan">
	<path class="st0" d="M26.7,42c-0.2-1.3-0.3-2.6-0.3-4C26.3,25,36.9,14.4,50,14.4S73.6,25,73.6,38c0,1.3-0.1,2.6-0.3,4
		c12,0.1,21.7,9.8,21.7,21.8c0,12-9.8,21.8-21.8,21.8c-6.1,0-11.6-2.5-15.5-6.5l0,0c-2.1-2.1-2.1-5.5,0-7.6c2.1-2.1,5.5-2.1,7.7,0
		c0.1,0.1,0.1,0.1,0.2,0.2c2,1.9,4.7,3.1,7.7,3.1c6.1,0,11-4.9,11-11c0-6.1-4.9-11-11-11c-2.8,0-5.3,1-7.3,2.7l0,0l-0.2,0.2
		c-0.2,0.2-0.4,0.4-0.6,0.6l-0.4,0.4l0,0L42.4,79.1l0,0c-4,4-9.5,6.6-15.6,6.6C14.8,85.6,5,75.9,5,63.8C5,51.8,14.7,42.1,26.7,42
		L26.7,42z M26.8,74.8c6.1,0,11-4.9,11-11c0-6.1-4.9-11-11-11s-11,4.9-11,11C15.8,69.9,20.7,74.8,26.8,74.8z M50,50.9
		c7.1,0,12.8-5.7,12.8-12.8c0-7.1-5.7-12.8-12.8-12.8S37.2,30.9,37.2,38C37.2,45.1,42.9,50.9,50,50.9z"/>
	<path class="st1" d="M62.7,39.4c0-0.2,0-0.4,0-0.6c0-3,2.4-5.5,5.5-5.5c3,0,5.5,2.4,5.5,5.5c0,0.2,0,0.5,0,0.7
		c-0.7,12.4-11,22.2-23.6,22.2s-22.9-9.8-23.6-22.2c0-0.2,0-0.5,0-0.7c0-3,2.4-5.5,5.5-5.5s5.5,2.4,5.5,5.5c0,0.2,0,0.4,0,0.6
		c0.7,6.4,6.1,11.5,12.8,11.5S62.1,45.8,62.7,39.4z"/>
</g>
</svg>
