<?xml version="1.0" encoding="utf-8"?>
<svg version="1.1" width="100" height="100" xmlns="http://www.w3.org/2000/svg">
<style type="text/css">
	.st0{fill:#1488F5;}
</style>
<g id="baidufanyi">
	<path class="st0" d="M21,24.5h10.7V13.9H21V24.5z M5,41.5h17.1v40.4h8.6V35.1H5V41.5z M71.1,34.4c4-3.3,8-7.3,11.8-11.7
		c0.9-1.8,2.2-2.6,4-2.3c1.1-0.2,1.8-0.6,2-1c0.2-0.2-0.1-0.8-1-1.7c-2.7-2.7-4.9-4.8-6.7-6.4c-1.1-1.1-2-1-2.7,0.3
		c-0.7,0.9-1.3,1.6-2,2c-0.7,0.7-1.7,1.1-3,1.3h-1l-21.6,1.3c-5.2,0-9.1,0.1-11.8,0.3l3.4,4.7c1.8-0.2,3.4-0.3,4.7-0.3
		c3.1,5.6,6.6,10.3,10.4,14.1c-5.2,3.6-12.4,7.6-21.6,12.1l1,1.7c11.7-2.5,20.4-5.5,26.3-9c5.8,4,12.6,6.8,20.2,8.4
		c2.2,0.7,3.6,0.6,4-0.3c2-2.9,4.5-5,7.4-6.4v-2C84.9,38.3,76.9,36.6,71.1,34.4z M63,30.4c-4-2.5-8-5.7-11.8-9.7h2l19.5-1.3
		C69.8,23.6,66.6,27.2,63,30.4z M89.3,64.5c-2.3,0.5-5.6,0.9-10.1,1.3c-1.6,0.2-2.6,0.3-3,0.3l-7.1,0.3c0.2-2.7,0.3-5.2,0.3-7.7
		v-1.3l5.7-0.3h10.4c0.9,0,1.3-0.1,1.3-0.3c0.2-0.4,0.1-0.9-0.3-1.3c-1.6-1.6-2.9-2.8-4-3.7c-0.2,0-0.8,0.1-1.7,0.3
		c-4.7,0.5-7.9,0.7-9.4,0.7l-2,0.3c0-2,0.1-3.8,0.3-5.4c0-0.9-0.3-1.3-1-1.3c-1.8-1.1-4.6-2.1-8.4-3c-0.7-0.2-1.1-0.2-1.3,0
		c-0.2,0.2-0.2,0.7,0,1.3v8.7l-5.4,0.3c-2,0.2-6.1,0.3-12.1,0.3l3.4,5c4.5-0.4,7.6-0.7,9.4-0.7l4.7-0.3v8.7l-7.8,0.3h-3.7
		c-2.5,0.2-4.4,0.3-5.7,0.3l-4.1,0.3l2,2l2,2.7c3.6-0.5,7.3-0.7,11.1-0.7l6.1-0.3c-0.2,3.6-0.3,9.1-0.3,16.7c0,1.1,0.3,1.4,1,1
		c2.9-0.4,5.8-1.3,8.8-2.7c0.7-0.2,1-0.9,1-2c-0.2-4.2-0.3-8.8-0.3-13.7l11.1-0.3c2.5-0.2,6.6-0.3,12.5-0.3c0.7,0,1.1-0.1,1.3-0.3
		c0-0.2-0.2-0.6-0.7-1C92.9,68.2,91.5,66.8,89.3,64.5z"/>
</g>
</svg>
