<?xml version="1.0" encoding="utf-8"?>
<svg version="1.1" width="100" height="100" xmlns="http://www.w3.org/2000/svg">
<style type="text/css">
	.st0{fill:#3B8CFF;}
</style>
<g id="baidupan">
	<path class="st0" d="M88.6,46.1c-4.6-4.6-10.8-6.7-16.8-6.3c0.4-6-1.7-12.2-6.3-16.8c-8.5-8.5-22.4-8.5-30.9,0
		c-4.6,4.6-6.7,10.8-6.3,16.8c-6-0.4-12.2,1.7-16.8,6.3c-8.5,8.5-8.5,22.4,0,30.9s22.4,8.5,30.9,0l14.3-14.3l1.1-1.1l7.7-7.7
		c4.3-4.3,11.2-4.3,15.4,0s4.3,11.2,0,15.4c-4.3,4.3-11.2,4.3-15.4,0c-2.1-2.1-5.6-2.1-7.7,0s-2.1,5.6,0,7.7
		c8.5,8.5,22.4,8.5,30.9,0C97.1,68.5,97.1,54.7,88.6,46.1z M19.1,69.3c-4.3-4.3-4.3-11.2,0-15.4c4.3-4.3,11.2-4.3,15.4,0
		s4.3,11.2,0,15.4C30.3,73.6,23.4,73.6,19.1,69.3z M42.3,46.1C38,41.9,38,35,42.3,30.7c4.3-4.3,11.2-4.3,15.4,0s4.3,11.2,0,15.4
		C53.5,50.4,46.5,50.4,42.3,46.1z"/>
</g>
</svg>
