<?xml version="1.0" encoding="utf-8"?>
<svg version="1.1" width="100" height="100" xmlns="http://www.w3.org/2000/svg">
<style type="text/css">
	.st0{fill:#1572B6;}
	.st1{fill:#1A8DD3;}
	.st2{fill:#FFFFFF;}
	.st3{fill:#EBEBEB;}
</style>
<g id="css3">
	<path class="st0" d="M17.5,86L10.3,5h79.4l-7.2,81L50,95L17.5,86z"/>
	<path class="st1" d="M50,88.1l26.3-7.3l6.2-69.2H50L50,88.1z"/>
	<path class="st2" d="M50,41h13.1l0.9-10.2H50v-9.9h24.9l-0.2,2.7l-2.4,27.4H50L50,41z"/>
	<path class="st3" d="M50.1,66.8L50.1,66.8l-11.1-3l-0.7-7.9h-10l1.4,15.6L50,77.1h0.1L50.1,66.8L50.1,66.8z"/>
	<path class="st2" d="M62.3,50.5l-1.2,13.3l-11.1,3v10.4l20.4-5.6l0.1-1.7l1.7-19.3L62.3,50.5L62.3,50.5z"/>
	<path class="st3" d="M50,20.9v9.9H26l-0.2-2.2l-0.5-5l-0.2-2.7L50,20.9z M50,41v9.9H39.1l-0.2-2.2l-0.5-5L38.2,41L50,41L50,41z"/>
</g>
</svg>
