<?xml version="1.0" encoding="utf-8"?>
<svg version="1.1" width="100" height="100" xmlns="http://www.w3.org/2000/svg">
<style type="text/css">
	.st0{fill:#099CEC;}
	.st1{fill:#FFFFFF;}
	.st2{fill:#066DA5;}
	.st3{fill:#4D5C64;}
	.st4{opacity:5.000000e-02;}
</style>
<g id="docker">
	<path id="path909" class="st0" d="M23,40.6h9.3v8.4H23V40.6z"/>
	<path id="path911" class="st0" d="M12.1,40.6h9.3v8.4h-9.3V40.6z"/>
	<path id="path913" class="st0" d="M34,40.6h9.3v8.4H34V40.6z"/>
	<path id="path915" class="st0" d="M45,40.6h9.3v8.4H45V40.6z"/>
	<path id="path917" class="st0" d="M56,40.6h9.3v8.4H56L56,40.6z"/>
	<path id="path919" class="st0" d="M23,30.5h9.3v8.4H23V30.5z"/>
	<path id="path921" class="st0" d="M34,30.5h9.3v8.4H34V30.5z"/>
	<path id="path923" class="st0" d="M45,30.5h9.3v8.4H45V30.5z"/>
	<path id="path925" class="st0" d="M45,20.3h9.3v8.4H45V20.3z"/>
	<path id="path937" class="st0" d="M92.9,43.2c-1.9-1.3-6.9-1.8-10.6-0.9c-0.2-3.6-2.1-6.7-5.5-9.4l-1.3-0.9l-0.8,1.3
		c-1.7,2.5-2.4,5.9-2.1,8.9c0.2,1.9,0.8,4,2.1,5.5c-1,0.8-4,2.2-8,2.1H6.4c-1.1,6.4,0.8,30.6,28.7,30.6c20.8,0,37.8-9.3,45.6-28.9
		c2.6,0,9.4,0.5,12.7-6c0.1-0.1,0.8-1.7,0.8-1.7L92.9,43.2z"/>
	<path class="st1" d="M28.7,69.1c-6.9,2.4-14.3,2.7-15.9,2.7c5.2,4.3,14.4,12.4,29.6,7.8C39.6,78.8,33.1,76.3,28.7,69.1z"/>
	<path id="path959" class="st2" d="M27.9,67.6c-3.3,1.9-7.2,3-11.2,3c-2.1,0-4.1-0.3-6-0.8l1.2,2c1.5,0.3,3.1,0.5,4.8,0.5
		c4.4,0,8.5-1.1,12.1-3.2C28.4,68.6,28.2,68.1,27.9,67.6"/>
	<path id="path963" class="st1" d="M34.3,66.5c1.6,0,2.9-1.3,2.9-3c0-1.6-1.3-3-2.9-3c-1.6,0-2.9,1.3-2.9,3
		C31.4,65.2,32.7,66.5,34.3,66.5"/>
	<path id="path967" class="st3" d="M34.8,62.7c0-0.3,0.1-0.5,0.3-0.7c-0.2-0.1-0.5-0.2-0.8-0.2c-0.9,0-1.7,0.8-1.7,1.7
		c0,0.9,0.8,1.7,1.7,1.7c0.9,0,1.7-0.8,1.7-1.7c0,0,0-0.1,0-0.1c-0.1,0.1-0.2,0.1-0.4,0.1C35.2,63.6,34.8,63.2,34.8,62.7"/>
	<path id="path981" class="st4" d="M92.7,43.1c-1.9-1.3-7.1-1.9-10.6-0.9l-0.8,1.1C70,66.7,55.9,76.6,36.5,77.1
		C15.4,77,10.1,65.9,8.6,50.7H5.3c-0.4,6.4,1.2,29.8,29.4,29.8c20.8,0,37.9-9.3,45.8-28.9c2.6,0,9.8,0,12.9-6.4l0.6-1.4L92.7,43.1z"
		/>
	<path id="path993" class="st2" d="M13.7,42.3h0.8v5.1h-0.8V42.3z"/>
	<path id="path995" class="st2" d="M16.3,42.3h0.8v5.1h-0.8V42.3z"/>
	<path id="path997" class="st2" d="M18.8,42.3h0.8v5.1h-0.8V42.3z"/>
	<path id="path999" class="st2" d="M24.7,42.3h0.8v5.1h-0.8V42.3z"/>
	<path id="path1001" class="st2" d="M27.3,42.3h0.8v5.1h-0.8V42.3z"/>
	<path id="path1003" class="st2" d="M29.8,42.3h0.8v5.1h-0.8V42.3z"/>
	<path id="path1005" class="st2" d="M35.7,42.3h0.8v5.1h-0.8V42.3z"/>
	<path id="path1007" class="st2" d="M38.2,42.3h0.8v5.1h-0.8V42.3z"/>
	<path id="path1009" class="st2" d="M40.8,42.3h0.8v5.1h-0.8V42.3z"/>
	<path id="path1011" class="st2" d="M46.7,42.3h0.8v5.1h-0.8V42.3z"/>
	<path id="path1013" class="st2" d="M49.2,42.3h0.8v5.1h-0.8V42.3z"/>
	<path id="path1015" class="st2" d="M51.8,42.3h0.8v5.1h-0.8V42.3z"/>
	<path id="path1017" class="st2" d="M57.7,42.3h0.8v5.1h-0.8V42.3z"/>
	<path id="path1019" class="st2" d="M60.2,42.3H61v5.1h-0.8V42.3z"/>
	<path id="path1021" class="st2" d="M62.7,42.3h0.8v5.1h-0.8V42.3z"/>
	<path id="path1023" class="st2" d="M27.3,32.2h0.8v5.1h-0.8V32.2z"/>
	<path id="path1025" class="st2" d="M29.8,32.2h0.8v5.1h-0.8V32.2z"/>
	<path id="path1027" class="st2" d="M35.7,32.2h0.8v5.1h-0.8V32.2z"/>
	<path id="path1029" class="st2" d="M38.2,32.2h0.8v5.1h-0.8V32.2z"/>
	<path id="path1031" class="st2" d="M40.8,32.2h0.8v5.1h-0.8V32.2z"/>
	<path id="path1033" class="st2" d="M46.7,32.2h0.8v5.1h-0.8V32.2z"/>
	<path id="path1035" class="st2" d="M49.2,32.2h0.8v5.1h-0.8V32.2z"/>
	<path id="path1037" class="st2" d="M51.8,32.2h0.8v5.1h-0.8V32.2z"/>
	<path id="path1039" class="st2" d="M49.2,22h0.8v5.1h-0.8V22z"/>
	<path id="path1041" class="st2" d="M46.7,22h0.8v5.1h-0.8V22z"/>
	<path id="path1043" class="st2" d="M51.8,22h0.8v5.1h-0.8V22z"/>
	<path id="path1045" class="st2" d="M24.7,32.2h0.8v5.1h-0.8V32.2z"/>
	<path id="path1073" class="st2" d="M86.9,50c-1.8,0.6-3.5,0.8-6,0.7c0,0-0.2,0-0.4,0l-0.6,0l-0.2,0.5
		c-7.4,18.5-23.5,28.4-44.8,28.4c-12.2,0-20.1-4.6-24.5-12.5c-1.7-3-2.8-6.4-3.3-9.9c-0.3-2.4-0.4-4.8-0.2-6.5h3.6v0h11H23h9.3H34
		h9.3H45h9.3H56h11v0c3.3,0,6.5-1.1,8-2.3l0.7-0.5l-0.6-0.7c-1-1.3-1.7-3.1-1.9-5.1c-0.2-3,0.5-6.1,2-8.4l0.4-0.6l0.5,0.4
		c3.3,2.6,5,5.4,5.1,8.7l0.1,1l1-0.3c3.3-0.9,8.1-0.5,9.9,0.7l0.7,0.4c0,0.1-0.1,0.1-0.1,0.2c-0.1,0.2-0.2,0.4-0.3,0.5
		c0,0.1-0.1,0.1-0.1,0.3C91.1,47.7,89.2,49.2,86.9,50 M12.1,40.6h9.3V49h-9.3V40.6z M23,40.6h9.3V49H23V40.6z M23,30.5h9.3v8.4H23
		V30.5z M34,40.6h9.3V49H34V40.6z M34,30.5h9.3v8.4H34V30.5z M45,40.6h9.3V49H45V40.6z M45,30.5h9.3v8.4H45V30.5z M45,20.3h9.3v8.4
		H45V20.3z M56,40.6h9.3V49H56V40.6z M93.8,46.1c0.1-0.1,0.2-0.4,0.5-0.9c0.1-0.2,0.2-0.4,0.3-0.6c0-0.1,0.1-0.1,0.1-0.3l0.3-0.7
		l-1.9-1.3c-2-1.4-6.7-1.9-10.3-1.2c-0.5-3.4-2.4-6.4-5.7-9l-2-1.3l-1.3,2c-1.7,2.6-2.5,6.1-2.3,9.5c0.2,1.9,0.8,3.8,1.7,5.2
		C71.8,48.3,69.5,49,67,49V38.9H56v-8.4v-1.7V18.6H43.3v10.1H34h-1.7h-11v10.1h-11V49H6.1H5.4l-0.1,0.7c-0.3,2-0.3,4.8,0.1,7.7
		C5.9,61.2,7,64.8,8.8,68c4.7,8.4,13.2,13.3,26,13.3c21.8,0,38.4-10,46.2-28.9c2.6,0,4.4-0.1,6.5-0.8C90.2,50.7,92.3,48.9,93.8,46.1
		"/>
</g>
</svg>
