<?xml version="1.0" encoding="utf-8"?>
<svg version="1.1" width="100" height="100" xmlns="http://www.w3.org/2000/svg">
<style type="text/css">
	.st0{fill:#EE8421;}
</style>
<g id="esma">
	<path id="path16" class="st0" d="M33.1,92.2c-3.5-2.4-7.9-5.8-11.2-8.9c-4.7-4.2-8.5-9.4-11.2-15.1c2.1,6,5.4,11.7,10.3,16.4
		C24.9,87.7,29,90.2,33.1,92.2L33.1,92.2z M78.4,18.1c-3.7-5.6-10.7-8.9-17.5-11c-20.1-7.9-48.7,7.2-53,33.2c-0.3,1.2-0.7,4-0.6,6.1
		c1.8-15.9,11.5-29.9,24.6-35.9c12.9-6.2,28.2-5.1,38.7,2.2c0.5,0.4,1.1,0.9,1.6,1.3c-1.8-0.9-3.8-1.7-5.8-2.4
		c-7.1-3.4-15.5-4.8-23.9-3c-16.5,2.6-31.4,17.6-34,36.3c-0.2,1.2-0.3,2.4-0.4,3.7c-0.5-0.4-0.8-1.2-0.8-2.3C7,47.7,7,49,7.1,50.2
		c-0.2,6,1.2,12.2,3.7,17.9c-1-3-1.6-6-1.9-9c1.2,5.8,3.6,11.4,7.4,15.9c2.5,2.5,5.2,8.1,8.5,9.8C37.4,95,56.6,98.4,69.5,91
		c1.8-0.5,3.5-1,5.1-1.9c-2.1,0.7-4.4,1.1-6.2,1.8l-0.6,0c-0.5,0.3-0.8,0.5-1.1,0.6c-9.6,1.2-29.1,3.3-41.2-6.8
		c-3.4-2.5-6.1-5.7-8.6-9c1.3,0.9,3.3,2,4.5,3.3c6.1,6.1,14.4,11.6,22.6,12.2c-3.7-1.5-7-3.4-10.5-5.5c-1.8-0.8-4.8-1.3-6.1-2.9
		c-7.6-6.5-14.1-13.1-15.3-23.1c-0.2-1,0.5-1.8,0.1-2.6c1.9,11,8.8,19.2,17.5,25.7c1.2,1.4,2.5,2,3.7,2.9c1.5,0.5,2.9,1.1,4,1.7
		c12.9,4.8,15.2-0.5,26.8-0.6c-5.2,1.3-14.1,3.8-18.7,4.1c8.1,1.7,23.4-2.5,30.4-7.7c8.7-5.9,7-6.2,11.4-13.8c0.4-0.6,0.8-2,1.1-3.7
		c2.7-5.3,4.3-11.2,4.3-17.6C92.9,35.9,87.2,25.1,78.4,18.1L78.4,18.1z M14.7,56.2c-0.8-4.9-1-10,0.1-15c-0.1,1-0.2,1.8-0.1,2.2
		c-0.5,6,0,11,0.5,14.2C15,57.1,14.9,56.7,14.7,56.2c0.2,0.9,0.5,1.9,0.8,2.8c0.5,2.3,0.9,3.2,0.8,2.3c3.9,10.1,12,17.9,21,21.6
		C28.5,81.8,16.8,69.8,14.7,56.2L14.7,56.2z M40.4,12.8c-7.4,1.5-14.6,5.6-19.9,12.8c3.6-4.5,7.8-6.9,11.9-8.4
		c-0.4,0.3-0.7,0.5-1.1,0.8c-3.2,1.9-6.3,4.2-9,7.1c-0.7,0.9-1.1,2.1-1.7,2.9l-1.4,2.2c-1.9,1.8-3.1,4-4.3,6.3
		c-5.4,11.9-4.8,26.8,2.7,39.3C4.1,57.2,9.4,30.7,25.3,18.9c6.6-5.2,14.3-7.8,21.8-8.2C44.8,11.2,42.6,11.9,40.4,12.8z M64.8,86.3
		c-1.3,0.2,0.7-0.3,6.3-3.6c0.5-0.3,1-0.6,1.6-1c2.2-1.2,4.3-2.5,6.2-4.1C73.3,83,66.5,86.4,64.8,86.3"/>
</g>
</svg>
