<?xml version="1.0" encoding="utf-8"?>
<svg version="1.1" width="100" height="100" xmlns="http://www.w3.org/2000/svg">
<style type="text/css">
	.st0{fill:#24292E;}
</style>
<g id="github">
	<path class="st0" d="M50,6.1c-24.9,0-45,20.1-45,45C5,71,17.9,87.8,35.8,93.8c2.3,0.4,3.1-1,3.1-2.1c0-1.1-0.1-4.6-0.1-8.4
		c-11.3,2.1-14.2-2.8-15.1-5.3c-0.5-1.3-2.7-5.3-4.6-6.4c-1.6-0.8-3.8-2.9-0.1-3c3.5-0.1,6.1,3.3,6.9,4.6c4,6.8,10.5,4.9,13.1,3.7
		c0.4-2.9,1.6-4.9,2.9-6c-10-1.1-20.5-5-20.5-22.2c0-4.9,1.7-8.9,4.6-12.1c-0.5-1.1-2-5.7,0.4-11.9c0,0,3.8-1.2,12.4,4.6
		c3.6-1,7.4-1.5,11.3-1.5c3.8,0,7.7,0.5,11.3,1.5c8.6-5.8,12.4-4.6,12.4-4.6c2.5,6.2,0.9,10.8,0.4,11.9c2.9,3.1,4.6,7.1,4.6,12.1
		C78.8,66,68.3,69.8,58.3,71c1.6,1.4,3,4.1,3,8.3c0,6-0.1,10.9-0.1,12.4c0,1.2,0.8,2.6,3.1,2.1C82.7,87.6,95,70.4,95,51.1
		C95,26.2,74.9,6.1,50,6.1z"/>
</g>
</svg>
