<?xml version="1.0" encoding="utf-8"?>
<svg version="1.1" width="100" height="100" xmlns="http://www.w3.org/2000/svg">
<g id="google">
	<path fill="#FBBC05" d="M24.4,50c0-2.9,0.5-5.7,1.3-8.4L10.6,30.1C7.7,36.1,6,42.8,6,50s1.7,13.9,4.6,19.9l15.1-11.6C24.9,55.7,24.4,52.9,24.4,50z"/>
	<path fill="#EA4335" d="M10.6,30.1l15.1,11.6C29.3,31,39.2,23.4,51,23.4c6.3,0,12.1,2.3,16.6,5.9l13.1-13.1C72.7,9.3,62.5,5,51,5C33.2,5,18,15.2,10.6,30.1z"/>
	<path fill="#34A853" d="M51,41.8v17.4h24.1c-2.3,11-11.7,17.4-24.1,17.4c-11.8,0-21.8-7.6-25.3-18.3L10.6,69.9C17.9,84.8,33.2,95,51,95c22.5,0,43-16.4,43-45c0-2.7-0.4-5.5-1-8.2H51z"/>
	<path fill="#4285F4" d="M51,41.8v17.4h24.1C74,65.1,70.7,69.7,66,72.7l14.4,11.1C88.6,76.1,94,64.7,94,50c0-2.7-0.4-5.5-1-8.2H51z"/>
</g>
</svg>
