<?xml version="1.0" encoding="utf-8"?>
<svg version="1.1" width="100" height="100" xmlns="http://www.w3.org/2000/svg">
<style type="text/css">
	.st0{fill:#5281A0;}
	.st1{fill:#E66E09;}
</style>
<g id="java">
	<path class="st0" d="M38.2,74.6c0,0-3.4,2,2.4,2.7c7.1,0.8,10.8,0.7,18.6-0.8c0,0,2.1,1.3,5,2.4C46.6,86.5,24.4,78.5,38.2,74.6"/>
	<path class="st0" d="M36,64.7c0,0-3.9,2.9,2,3.5c7.6,0.8,13.6,0.9,24-1.2c0,0,1.4,1.5,3.7,2.3C44.5,75.5,20.8,69.8,36,64.7"/>
	<path class="st1" d="M54.2,48c4.3,5-1.1,9.5-1.1,9.5s11-5.7,6-12.8c-4.7-6.6-8.4-9.9,11.3-21.3C70.3,23.4,39.5,31.1,54.2,48"/>
	<path class="st0" d="M77.5,81.9c0,0,2.5,2.1-2.8,3.7c-10.2,3.1-42.3,4-51.3,0.1c-3.2-1.4,2.8-3.3,4.7-3.7c2-0.4,3.1-0.3,3.1-0.3
		c-3.6-2.5-23.1,4.9-9.9,7.1C57.2,94.5,86.8,86.1,77.5,81.9"/>
	<path class="st0" d="M39.8,54.5c0,0-16.4,3.9-5.8,5.3c4.5,0.6,13.4,0.5,21.6-0.2c6.8-0.6,13.6-1.8,13.6-1.8s-2.4,1-4.1,2.2
		c-16.6,4.4-48.7,2.3-39.5-2.1C33.5,54.1,39.8,54.5,39.8,54.5"/>
	<path class="st0" d="M69.2,70.9c16.9-8.8,9.1-17.2,3.6-16.1c-1.3,0.3-1.9,0.5-1.9,0.5s0.5-0.8,1.4-1.1c10.8-3.8,19.1,11.2-3.5,17.1
		C68.8,71.4,69.1,71.1,69.2,70.9"/>
	<path class="st1" d="M59,5c0,0,9.4,9.4-8.9,23.7c-14.6,11.5-3.3,18.1,0,25.6c-8.5-7.7-14.8-14.5-10.6-20.8
		C45.7,24.3,62.8,19.9,59,5"/>
	<path class="st0" d="M41.5,94.7c16.2,1,41.1-0.6,41.7-8.2c0,0-1.1,2.9-13.4,5.2c-13.8,2.6-30.9,2.3-41,0.6
		C28.8,92.3,30.8,94,41.5,94.7"/>
</g>
</svg>
