<?xml version="1.0" encoding="utf-8"?>
<svg version="1.1" width="100" height="100" xmlns="http://www.w3.org/2000/svg">
<style type="text/css">
	.st0{fill:#E1E0E0;}
	.st1{fill:#AA201D;}
	.st2{fill:#302F2D;}
</style>
<g id="jd">
	<g>
		<path class="st0" d="M89.6,41.1c0.7-0.4,1.2-0.9,1.9-1.3c0.7-1.9,1.5-3.7,2.2-5.6c1.1-2.8,1.5-5.8,1.4-8.8
			c-0.1-2.5-1.2-4.4-3.2-5.9c-1.5-1.1-3.1-1.8-4.8-2.4c-4.2-1.4-8.6-1.7-13.1-1.8c-4-0.1-8,0.1-11.9,0.7c-2.9,0.4-5.8,0.8-8.7,1.5
			c-2.8,0.7-5.5,1.6-8.2,2.6c-4.6,1.6-9.1,3.5-13.3,5.9c-3.1,1.7-6,3.9-8.2,6.7c-0.4,0.5-0.6,0.5-1.2,0.2c-1.7-1-3.5-2-5.3-2.9
			c-2.1-1-4-0.3-4.7,1.9c-0.4,1.3-0.8,2.7-1.2,4c-0.8,2.9-1.8,5.7-3.4,8.3c-1.2,1.9-2.1,4-2.6,6.3c-0.8,3.1,2.5,5.7,4.9,4.8
			c1.2-0.5,2.5-0.8,3.6-1.3c1.9-0.8,3.7-2,5.1-3.5c1.6-1.7,2.3-3.8,2.3-6c0-1.3-0.1-2.5-0.2-3.8c-0.1-0.7-0.2-1.4-0.3-2
			c0-0.1,0.1-0.4,0.2-0.4c0.4,0,1,0.6,1.1,1c0.2,0.7,0.4,1.5,0.7,2.2c1.1,2.6,3,4.6,5,6.4c4,3.6,8.5,6.5,13.4,8.7
			c4.5,2,9.1,3.6,13.9,4.4c0,0,0,0,0,0c0.3,0.2,1.4,0.8,0.5,2.3c-0.1,0.1-0.2,0.3-0.3,0.4c0,0,0,0,0,0c-1.3,2.2-2.6,4.5-4,6.7
			c-0.4,0.7-0.8,1.6-1.4,2.1c-1.1,1-3.8,0.5-4.6-0.8c-0.4-0.6-0.5-1.4-0.7-2.1c0-0.1-0.1-0.2-0.2-0.3c-0.1,0.1-0.1,0.1-0.2,0.2
			c-0.2,1.5-0.3,2.9,0.7,4.1c0.7,0.9,1.7,1.4,2.8,1.7c0.4,0.1,0.4,0.2,0.2,0.6c-0.9,1.5-1.8,3.1-2.7,4.6c-0.7,1.2-1.4,2.3-2,3.5
			c-0.1,0.1-0.1,0.4,0,0.5c0.5,0.2,1.7-0.1,2.1-0.5c1.3-1.4,2.5-2.7,3.8-4.1c1.1-1.2,2.1-2.4,3.6-3.1c0.9-0.5,1-0.4,1,0.6
			c-0.1,2.2-0.2,4.3-0.3,6.5c0,0.5,0.1,0.7,0.6,0.6c0.4,0,0.7,0,1.1,0c0.4,0,0.6-0.1,0.7-0.5c0.5-1.6,0.9-3.2,1.5-4.7
			c0.4-1.1,1.1-2.1,1.8-3.1c0.7-0.9,1.8-0.8,2.5,0.1c0.3,0.4,0.6,0.9,0.7,1.4c0.5,1.7,0.9,3.4,1.4,5.1c0.1,0.6,0.1,1.3,0.5,1.6
			c0.4,0.3,1.1,0.1,1.7,0.1c0.4,0,0.5-0.1,0.5-0.5c0-3.5,0-7,0-10.5c0,0,0,0,0,0c0-3.1,0-6.3,0-9.4c0-0.1,0-0.3,0-0.4h0
			c0-0.6,0.2-1.3,0.4-1.8c0.3-0.6,0.8-1.4,1.1-1.5c0.2-0.1,0.4-0.1,0.6-0.2c4.5-1.4,8.7-3.5,12.3-6.5c3.6-3,6.6-6.5,9.1-10.5
			L89.6,41.1z"/>
		<path class="st1" d="M66.2,63.6c0-0.6,0.2-1.1,0.4-1.6c0.3-0.6,0.8-1.4,1.1-1.5c-3.7,1.1-7.5,1.2-11.3,0.8c-0.5-0.1-1-0.1-1.5-0.2
			c0,0,0,0,0,0c0.3,0.2,1.4,0.8,0.5,2.3c-0.1,0.1-0.2,0.3-0.3,0.4c0.4,0.1,0.9,0.1,1.3,0.2C59.7,64.3,63,64.3,66.2,63.6L66.2,63.6z"
			/>
		<path class="st2" d="M89.7,43.3c-3.2,1.7-6.7,2.4-10.3,2.6c-5.7,0.4-11.2-0.2-16.5-2.5c-3.5-1.5-6.4-3.7-9-6.4
			c-0.3-0.3-0.6-0.7-0.8-1.1c-0.4-0.7-0.4-1.3,0.1-1.6c0.4-0.3,1.1-0.1,1.6,0.4c2.8,3.1,6,5.7,10,7.1c6.3,2.2,12.7,2.7,19.2,1.2
			c2-0.4,3.9-1,5.7-2c0.7-0.4,1.2-0.9,1.9-1.3C90.8,41,90.3,42.1,89.7,43.3z"/>
		<path class="st2" d="M77.5,22.8c-0.4-0.1-0.7-0.3-1-0.5c-0.9-0.6-1-1.7-0.3-2.5c0.3-0.3,0.7-0.6,1.1-0.8c4-1.9,8-2,12-0.4
			c0.4,0.2,0.7,0.4,1,0.7c0.4,0.4,0.4,0.9,0.2,1.5c-0.4,1.2-1.5,1.5-2.4,1.9c-1.2,0.4-3.2,1-5.4,0.9C82.3,23.6,79.2,23.4,77.5,22.8z
			"/>
		<path class="st2" d="M54.9,28.8c-1.5,0-2.6-1.1-2.6-2.4c0-1.4,1.1-2.3,2.7-2.3c1.4,0,2.5,1,2.5,2.3C57.4,27.8,56.3,28.8,54.9,28.8
			z"/>
	</g>
</g>
</svg>
