<?xml version="1.0" encoding="utf-8"?>
<svg version="1.1" width="100" height="100" xmlns="http://www.w3.org/2000/svg">
<g id="maven">
	<g id="g2" transform="matrix(0.09561334,-0.07017507,0.07017507,0.09561334,132.73733,36.368381)">
		<path id="path14" style="fill:#F69924;" d="M-633.5-775.1c-11,6.6-29.4,25-51.3,51.6l20.1,38c14.1-20.2,28.5-38.4,43-53.9
			c1.1-1.2,1.7-1.8,1.7-1.8c-0.5,0.7-1.2,1.2-1.7,1.8c-4.7,5.1-18.9,21.7-40.3,54.7c20.6-1.1,52.3-5.3,78.2-9.7
			c7.8-43.1-7.5-62.8-7.5-62.8S-610.7-788.6-633.5-775.1z"/>
		<path id="path13" style="fill:#DF592C;" d="M-724-587.4c6.2-11.4,12.4-22.6,18.5-33.5c6.4-11.3,13-22.2,19.7-32.9
			c0.4-0.7,0.8-1.3,1.2-1.8c6.6-10.4,13.1-20.4,19.8-30l-20.1-37.8c-1.4,1.8-3,3.7-4.6,5.7c-5.8,7.2-11.8,15-18,23.3
			c-7,9.3-14.1,19.2-21.4,29.6c-6.7,9.6-13.5,19.7-20.4,30.1c-5.8,8.9-11.6,18-17.3,27.3c-0.3,0.4-0.4,0.7-0.7,1.1l26.2,51.6
			C-735.3-565.7-729.6-576.6-724-587.4z"/>
		<path id="path12" style="fill:#822879;" d="M-843.2-296c-3.4,9.5-7,19.2-10.4,29.2c0,0.1-0.1,0.3-0.1,0.4
			c-0.5,1.4-1.1,2.8-1.4,4.2c-2.4,6.7-4.3,12.7-9.1,26.4c7.8,3.5,13.9,12.7,19.7,23.3c-0.7-10.9-5.1-21.2-13.7-29
			c38,1.7,70.8-7.9,87.7-35.7c1.4-2.5,2.9-5.1,4.2-7.9c-7.8,9.7-17.2,13.9-35.2,12.9h-0.1h0.1c26.4-11.8,39.7-23.3,51.4-42.1
			c2.8-4.5,5.5-9.3,8.3-14.7c-23.1,23.8-49.9,30.5-78.2,25.4l-21.2,2.4C-841.9-299.6-842.5-297.9-843.2-296z"/>
		<path id="path11" style="fill:#BE2143;" d="M-833.3-343.5c4.6-11.8,9.3-23.8,14.1-35.9c4.6-11.6,9.3-23.1,14.2-34.8
			c4.9-11.7,9.9-23.4,14.9-35.1c5.1-12,10.4-23.8,15.8-35.6c5.3-11.7,10.8-23.4,16.2-35c2-4.2,3.9-8.3,6-12.5
			c3.4-7.1,7-14.2,10.5-21.3c0.1-0.4,0.4-0.8,0.5-1.2l-25.9-51.5c-0.4,0.7-0.8,1.4-1.3,2.1c-6,10-12.2,20.1-18.1,30.5
			c-6,10.5-12,21.2-17.7,32.1c-4.9,9.2-9.6,18.4-14.3,27.7c-0.9,1.8-1.8,3.8-2.8,5.7c-5.7,11.7-10.9,23.1-15.5,34
			c-5.3,12.4-9.9,24.2-13.9,35.4c-2.6,7.4-5.1,14.5-7.4,21.3c-1.8,5.8-3.5,11.7-5.3,17.5c-3.9,13.7-7.2,27.3-10,41l26.3,51.9
			c3.4-9.3,7.1-18.7,10.6-28.3C-835.4-338.1-834.4-340.7-833.3-343.5z"/>
		<path id="path10" style="fill:#822879;" d="M-873.8-357.3c-3.3,16.6-5.7,33.1-6.8,49.7c0,0.5-0.1,1.2-0.1,1.7
			c-8.1-13.1-30.2-26-30.1-25.9c15.8,22.9,27.7,45.5,29.4,67.7c-8.4,1.7-20-0.8-33.2-5.7c13.9,12.7,24.3,16.3,28.4,17.2
			c-12.7,0.8-26,9.6-39.4,19.7c19.6-8,35.5-11.2,46.8-8.5c-18,50.9-36,107.1-54,166.8c5.5-1.6,8.8-5.4,10.6-10.4
			c3.2-10.8,24.6-81.7,58-174.9c0.9-2.6,2-5.3,2.9-8c0.3-0.8,0.5-1.4,0.8-2.2c3.5-9.7,7.2-19.7,11-30c0.9-2.4,1.7-4.6,2.6-7v-0.1
			l-26.3-51.9C-873.6-358.5-873.7-357.9-873.8-357.3z"/>
		<path style="fill:#2F2C67;" d="M-933-74.6c5.5-1.6,8.8-5.4,10.6-10.4c1.8-6,9.2-30.8,21.3-67.7l-6.2-4.5
			C-915.8-130.6-924.4-103-933-74.6z"/>
		<path id="path9" style="fill:#BE2143;" d="M-736.9-550.3c-0.8,1.6-1.4,3-2.2,4.6c-2.2,4.7-4.6,9.5-6.8,14.3
			c-2.5,5.3-5,10.6-7.6,16.2c-1.3,2.8-2.6,5.5-3.9,8.4c-3.9,8.5-7.9,17.3-12,26.4c-5,11.2-10,22.7-15.1,34.8
			c-4.9,11.4-9.9,23.4-14.9,35.6c-4.7,11.7-9.6,23.7-14.5,36.1c-4.3,11-8.7,22.5-13.1,34.2c-0.3,0.5-0.4,1.2-0.7,1.7
			c-4.3,11.6-8.8,23.5-13.3,35.7c-0.1,0.3-0.3,0.5-0.3,0.8l21.2-2.4c-0.4-0.1-0.8-0.1-1.3-0.3c25.4-3.2,59-22.1,80.7-45.5
			c10-10.8,19.1-23.4,27.5-38.2c6.3-11,12.1-23.3,17.7-36.9c4.9-11.8,9.6-24.7,14.1-38.6c-5.8,3-12.5,5.3-19.8,6.8
			c-1.3,0.3-2.6,0.5-3.9,0.8s-2.6,0.4-4.1,0.7l0,0l0,0l0,0c23.7-9.1,38.5-26.5,49.3-48.1c-6.2,4.2-16.3,9.7-28.4,12.5
			c-1.6,0.4-3.3,0.7-5,0.9c-0.4,0-0.8,0.1-1.3,0.1l0,0l0,0l0,0l0,0l0,0c8.1-3.4,15.1-7.2,21.2-11.8c1.3-0.9,2.5-2,3.7-3
			c1.8-1.6,3.5-3.3,5.3-5c1.1-1.2,2.1-2.2,3.2-3.4c2.4-2.8,4.6-5.8,6.6-9.1c0.7-1.1,1.3-2,1.8-3c0.8-1.6,1.6-3,2.2-4.5
			c3.3-6.6,5.9-12.5,8-17.7c1.1-2.6,2-5,2.8-7.2c0.3-0.9,0.7-1.7,0.9-2.6c0.8-2.5,1.6-4.7,2.1-6.7c0.8-2.9,1.3-5.3,1.6-7l0,0l0,0
			c-0.8,0.7-1.7,1.3-2.8,1.8c-7.1,4.2-19.3,8.1-29.2,10l19.5-2.1l-19.5,2.1c-0.1,0-0.3,0-0.4,0.1c-0.9,0.1-2,0.3-3,0.5
			c0.1-0.1,0.4-0.1,0.5-0.3l-66.5,7.2C-736.6-550.7-736.7-550.5-736.9-550.3z"/>
		<path id="path8" style="fill:#DF592C;" d="M-662-684.7c-5.9,9.1-12.4,19.5-19.3,31c-0.4,0.7-0.8,1.2-1.1,1.8
			c-6,10.1-12.4,21.2-19.1,33.4c-5.8,10.5-11.8,21.7-18.1,33.9c-5.5,10.5-11,21.7-17,33.5l66.5-7.2c19.3-8.9,28-17,36.4-28.6
			c2.2-3.2,4.5-6.6,6.7-10.1c6.8-10.6,13.5-22.3,19.5-34c5.8-11.3,10.9-22.5,14.7-32.5c2.5-6.4,4.5-12.4,5.9-17.6
			c1.2-4.6,2.1-8.9,2.9-13.1C-609.7-689.9-641.3-685.7-662-684.7z"/>
	</g>
	<g id="g1" transform="matrix(0.13272567,0.01947468,-0.01947468,0.13272567,170.19741,12.570146)">
		<path id="path7" style="fill:#F69924;" d="M-687.1,65.4c-11,6.6-29.4,25-51.3,51.6l20.1,38c14.1-20.2,28.5-38.4,43-53.9
			c1.1-1.2,1.7-1.8,1.7-1.8c-0.5,0.7-1.2,1.2-1.7,1.8c-4.7,5.1-18.9,21.7-40.3,54.7c20.6-1.1,52.3-5.3,78.2-9.7
			c7.8-43.1-7.5-62.8-7.5-62.8S-664.4,51.8-687.1,65.4z"/>
		<path id="path6" style="fill:#DF592C;" d="M-777.6,253c6.2-11.4,12.4-22.6,18.5-33.5c6.4-11.3,13-22.2,19.7-32.9
			c0.4-0.7,0.8-1.3,1.2-1.8c6.6-10.4,13.1-20.4,19.8-30l-20.1-37.8c-1.4,1.8-3,3.7-4.6,5.7c-5.8,7.2-11.8,15-18,23.3
			c-7,9.3-14.1,19.2-21.4,29.6c-6.7,9.6-13.5,19.7-20.4,30.1c-5.8,8.9-11.6,18-17.3,27.3c-0.3,0.4-0.4,0.7-0.7,1.1l26.2,51.6
			C-789,274.7-783.3,263.8-777.6,253z"/>
		<path id="path5" style="fill:#822879;" d="M-896.8,544.4c-3.4,9.5-7,19.2-10.4,29.2c0,0.1-0.1,0.3-0.1,0.4
			c-0.5,1.4-1.1,2.8-1.4,4.2c-2.4,6.7-4.3,12.7-9.1,26.4c7.8,3.5,13.9,12.7,19.7,23.3c-0.7-10.9-5.1-21.2-13.7-29
			c38,1.7,70.8-7.9,87.7-35.7c1.4-2.5,2.9-5.1,4.2-7.9c-7.8,9.7-17.2,13.9-35.2,12.9h-0.1h0.1c26.4-11.8,39.7-23.3,51.4-42.1
			c2.8-4.5,5.5-9.3,8.3-14.7c-23.1,23.8-49.9,30.5-78.2,25.4l-21.2,2.4C-895.5,540.8-896.2,542.5-896.8,544.4z"/>
		<path id="path4" style="fill:#BE2143;" d="M-887,496.9c4.6-11.8,9.3-23.8,14.1-35.9c4.6-11.6,9.3-23.1,14.2-34.8
			c4.9-11.7,9.9-23.4,14.9-35.1c5.1-12,10.4-23.8,15.8-35.6c5.3-11.7,10.8-23.4,16.2-35c2-4.2,3.9-8.3,6-12.5
			c3.4-7.1,7-14.2,10.5-21.3c0.1-0.4,0.4-0.8,0.5-1.2l-25.9-51.5c-0.4,0.7-0.8,1.4-1.3,2.1c-6,10-12.2,20.1-18.1,30.5
			c-6,10.5-12,21.2-17.7,32.1c-4.9,9.2-9.6,18.4-14.3,27.7c-0.9,1.8-1.8,3.8-2.8,5.7c-5.7,11.7-10.9,23.1-15.5,34
			c-5.3,12.4-9.9,24.2-13.9,35.4c-2.6,7.4-5.1,14.5-7.4,21.3c-1.8,5.8-3.5,11.7-5.3,17.5c-3.9,13.7-7.2,27.3-10,41l26.3,51.9
			c3.4-9.3,7.1-18.7,10.6-28.3C-889.1,502.3-888,499.7-887,496.9z"/>
		<path id="path3" style="fill:#822879;" d="M-927.5,483.1c-3.3,16.6-5.7,33.1-6.8,49.7c0,0.5-0.1,1.2-0.1,1.7
			c-8.1-13.1-30.2-26-30.1-25.9c15.8,22.9,27.7,45.5,29.4,67.7c-8.4,1.7-20-0.8-33.2-5.7c13.9,12.7,24.3,16.3,28.4,17.2
			c-12.7,0.8-26,9.6-39.4,19.7c19.6-8,35.5-11.2,46.8-8.5c-18,50.9-36,107.1-54,166.8c5.5-1.6,8.8-5.4,10.6-10.4
			c3.2-10.8,24.6-81.7,58-174.9c0.9-2.6,2-5.3,2.9-8c0.3-0.8,0.5-1.4,0.8-2.2c3.5-9.7,7.2-19.7,11-30c0.9-2.4,1.7-4.6,2.6-7v-0.1
			l-26.3-51.9C-927.2,482-927.3,482.5-927.5,483.1z"/>
		<path style="fill:#2F2C67;" d="M-962.1,686.9c-8.2,25.5-16.4,51.8-24.5,78.9c5.5-1.6,8.8-5.4,10.6-10.4
			c1.8-6.1,9.5-31.7,21.9-69.7L-962.1,686.9z"/>
		<path id="path2" style="fill:#BE2143;" d="M-790.5,290.1c-0.8,1.6-1.4,3-2.2,4.6c-2.2,4.7-4.6,9.5-6.8,14.3
			c-2.5,5.3-5,10.6-7.6,16.2c-1.3,2.8-2.6,5.5-3.9,8.4c-3.9,8.5-7.9,17.3-12,26.4c-5,11.2-10,22.7-15.1,34.8
			c-4.9,11.4-9.9,23.4-14.9,35.6c-4.7,11.7-9.6,23.7-14.5,36.1c-4.3,11-8.7,22.5-13.1,34.2c-0.3,0.5-0.4,1.2-0.7,1.7
			c-4.3,11.6-8.8,23.5-13.3,35.7c-0.1,0.3-0.3,0.5-0.3,0.8l21.2-2.4c-0.4-0.1-0.8-0.1-1.3-0.3c25.4-3.2,59-22.1,80.7-45.5
			c10-10.8,19.1-23.4,27.5-38.2c6.3-11,12.1-23.3,17.7-36.9c4.9-11.8,9.6-24.7,14.1-38.6c-5.8,3-12.5,5.3-19.8,6.8
			c-1.3,0.3-2.6,0.5-3.9,0.8c-1.3,0.3-2.6,0.4-4.1,0.7l0,0l0,0l0,0c23.7-9.1,38.5-26.5,49.3-48.1c-6.2,4.2-16.3,9.7-28.4,12.5
			c-1.6,0.4-3.3,0.7-5,0.9c-0.4,0-0.8,0.1-1.3,0.1l0,0l0,0l0,0l0,0l0,0c8.1-3.4,15.1-7.2,21.2-11.8c1.3-0.9,2.5-2,3.7-3
			c1.8-1.6,3.5-3.3,5.3-5c1.1-1.2,2.1-2.2,3.2-3.4c2.4-2.8,4.6-5.8,6.6-9.1c0.7-1.1,1.3-2,1.8-3c0.8-1.6,1.6-3,2.2-4.5
			c3.3-6.6,5.9-12.5,8-17.7c1.1-2.6,2-5,2.8-7.2c0.3-0.9,0.7-1.7,0.9-2.6c0.8-2.5,1.6-4.7,2.1-6.7c0.8-2.9,1.3-5.3,1.6-7l0,0l0,0
			c-0.8,0.7-1.7,1.3-2.8,1.8c-7.1,4.2-19.3,8.1-29.2,10l19.4-2.1l-19.4,2.1c-0.1,0-0.3,0-0.4,0.1c-0.9,0.1-2,0.3-3,0.5
			c0.1-0.1,0.4-0.1,0.5-0.3l-66.5,7.2C-790.3,289.7-790.4,290-790.5,290.1z"/>
		<path id="path1" style="fill:#DF592C;" d="M-715.6,155.8c-5.9,9.1-12.4,19.4-19.3,31c-0.4,0.7-0.8,1.2-1.1,1.8
			c-6,10.1-12.4,21.2-19.1,33.4c-5.8,10.5-11.8,21.7-18.1,33.9c-5.5,10.5-11,21.7-17,33.5l66.5-7.2c19.3-8.9,28-17,36.4-28.6
			c2.2-3.2,4.5-6.6,6.7-10.1c6.8-10.6,13.5-22.3,19.4-34c5.8-11.3,10.9-22.5,14.7-32.5c2.5-6.4,4.5-12.4,5.9-17.6
			c1.2-4.6,2.1-8.9,2.9-13.1C-663.3,150.5-695,154.7-715.6,155.8z"/>
	</g>
</g>
</svg>
