<?xml version="1.0" encoding="utf-8"?>
<svg version="1.1" width="100" height="100" xmlns="http://www.w3.org/2000/svg">
<style type="text/css">
	.st0{fill:#1A1A1A;}
	.st1{fill:url(#path3057-6_1_);}
	.st2{fill:url(#path3055_1_);}
	.st3{fill:url(#path3057_1_);}
	.st4{fill:#D40000;}
	.st5{fill:#FFFFFF;}
</style>
<g id="mybatis">
	<g>
		<path id="path3014_1_" class="st0" d="M85.7,41.7c6.2,1.8,6.2,1.8,6.2,1.8l-5.8,1.7l4,1.7l-4.2,0.8L85.7,41.7z"/>
		<path d="M85.1,48.7l-0.1-3l-1.4-0.6l1.4-0.4l-0.1-4.1l10.2,3l-6.3,1.9l4.4,1.8L85.1,48.7z M86.7,46.5l0,0.2l0.3-0.1L86.7,46.5z
			 M86.6,42.9l0,1.3l2.2-0.6L86.6,42.9z"/>
	</g>
	
		<linearGradient id="path3057-6_1_" gradientUnits="userSpaceOnUse" x1="278.4418" y1="680.1855" x2="298.5859" y2="680.1855" gradientTransform="matrix(1.8 0 0 -1.8 -473.8963 1269.0127)">
		<stop  offset="0" style="stop-color:#000000"/>
		<stop  offset="1" style="stop-color:#6D5656"/>
	</linearGradient>
	<path id="path3057-6" class="st1" d="M27.3,30.2c-0.8,10.6,11.9,27.6,24.5,29c4.9,0.5,12.1-4.1,11.7-9
		C62.5,36.4,41.3,35.7,27.3,30.2L27.3,30.2z"/>
	
		<linearGradient id="path3055_1_" gradientUnits="userSpaceOnUse" x1="309.1693" y1="672.5473" x2="357.1335" y2="703.683" gradientTransform="matrix(1.7978 -8.922389e-02 -8.922389e-02 -1.7978 -465.905 1312.9073)">
		<stop  offset="0" style="stop-color:#000000"/>
		<stop  offset="1" style="stop-color:#6D5656"/>
	</linearGradient>
	<path id="path3055" class="st2" d="M5,69.5c13.8,15.3,38.6,22.3,56.6,14.8c15-6.2,24.8-26.2,24.8-42c0-10.9-10.9-23.2-27-18.1
		c-7.2,2.3-12.7,9.5-17.4,16.1C31.6,54.1,22.4,63.5,5,69.5L5,69.5z"/>
	
		<linearGradient id="path3057_1_" gradientUnits="userSpaceOnUse" x1="276.4759" y1="675.3591" x2="292.955" y2="681.7938" gradientTransform="matrix(1.8 0 0 -1.8 -473.8963 1269.0127)">
		<stop  offset="0" style="stop-color:#000000"/>
		<stop  offset="1" style="stop-color:#6D5656"/>
	</linearGradient>
	<path id="path3057" class="st3" d="M15.4,38.5c0.9,10.6,16.2,25.4,28.8,24.7c4.9-0.3,11.3-6,10.1-10.8C51.1,39,30,41.7,15.4,38.5
		L15.4,38.5z"/>
	<path id="path3038" class="st4" d="M50.3,30.1c4.4,0.4,12.1,1.8,18.2,2.2c5,0.3,10.9,0.2,15,0.1c3,5.1,3.4,9,2.5,15.4
		c-8.8,1.5-15.4,0.3-22.6-2c-6.5-2.1-13-5.2-17.7-10.5C47.8,32.3,48.5,31.7,50.3,30.1L50.3,30.1z"/>
	<g id="g3044" transform="matrix(0.86579468,0.3649666,-0.26391158,0.69231919,85.48741,-162.41002)">
		<g id="g3016" transform="matrix(2,0,0,2.2452831,-561.08547,-140.09006)">
			<g id="g3024">
				<path id="path3012" class="st5" d="M318.1,176.7c0,1.5-1.3,2.6-3,2.6c-1.7,0-3-1.2-3-2.6s1.3-2.6,3-2.6
					C316.7,174,318.1,175.2,318.1,176.7z"/>
				<path id="path3797" class="st0" d="M317.9,176.6c0,1.1-0.9,2-2.1,2s-2.1-0.9-2.1-2s0.9-2,2.1-2
					C316.9,174.6,317.9,175.5,317.9,176.6z"/>
				<path id="path3801" class="st5" d="M317,175.5c0,0.4-0.3,0.7-0.7,0.7s-0.7-0.3-0.7-0.7s0.3-0.7,0.7-0.7S317,175.2,317,175.5z"/>
			</g>
		</g>
	</g>
	<path id="path3043" class="st0" d="M82.4,39.4c-1.1-0.7-2-1.6-3.1-2.3c-1.1-0.7-2.1-1.4-3.3-1.9c-0.5-0.2-1-0.4-1.6-0.5
		c-0.4,0.1,0.1-0.2,0.1-0.3c0.4-0.4,0.7-0.8,1.1-1.2c0.5,0.1,0.9,0.3,1.3,0.4c1.2,0.5,2.3,1.2,3.4,2c1.1,0.7,2.1,1.6,3.2,2.3
		c0.3,0.1,0.3,0.3,0.1,0.4C83.3,38.6,82.8,39,82.4,39.4L82.4,39.4z"/>
	<path id="path3095" class="st4" d="M51.2,36c-2.1-0.1-4.6,0.2-6.2-1.8c-1.4-1.6-2.6-3.5-3.3-5.6c-0.1-1.5-0.1-3.4-1.5-4.1
		c-1.6-1-3.5-0.9-5.3-1.2c-3.3-0.2-6.5,1.2-9.6,2.4c-1.5,0.6-3.3,0.5-4.4-1c-0.8-1-1.4-2.2-1.9-3.4c-0.8-0.8-0.8-2,0.2-2.3
		c0.6-0.4,1.3-0.9,1.9-1.3c1,2.2,1.8,4.9,3.9,5.9c2.2,0.5,4.2-0.9,6.2-1.5c2.9-1.1,6-1.3,8.9-0.7c1.7,0.2,3.8,0.9,4.3,3.1
		c0.2,1.9,0.5,3.8,1.6,5.2c1.1,1.9,2.7,3.8,4.8,3.9c0.7,0.3,3-0.3,2.7,0.4C52.7,34.6,51.9,35.3,51.2,36L51.2,36z"/>
	<path id="path3097" class="st4" d="M49.8,35c-1.5-1-3.4-1.9-4.1-3.7c-0.4-1.2-0.9-2.5-1.1-3.8c-0.2-1.7,0-3.5-0.1-5.3
		c0.3-1.1-0.4-2.1-1.6-2.4c-1.5-0.4-3-0.4-4.5-0.6c-1.4-0.1-3,0.2-4.1-0.8c-0.8-1-1.2-2.3-1.6-3.5c-0.1-0.6,0.7-0.7,1.1-1
		c0.7-0.4,1.3-0.8,2-1.3c0.1,1.2,0.7,2.3,1.1,3.3c0.6,1.1,2,1.2,3.2,1.2c1.8,0.1,3.6,0.1,5.4,0.5c1.1,0.3,2.4,1,2.3,2.3
		c0.1,2.7-0.4,5.4,0.6,8c0.4,1.2,0.8,2.4,1.8,3.2c0.8,0.7,1.7,1.2,2.6,1.7c-0.7,0.6-1.6,1.1-2.4,1.6C50.1,34.7,49.9,34.8,49.8,35
		L49.8,35z"/>
</g>
</svg>
