<?xml version="1.0" encoding="utf-8"?>
<svg version="1.1" width="100" height="100" xmlns="http://www.w3.org/2000/svg">
<style type="text/css">
	.st0{fill:#00758F;}
</style>
<g id="mysql">
	<path class="st0" d="M87.9,74.2c-4.9-0.1-8.7,0.4-11.9,1.7c-0.9,0.4-2.4,0.4-2.5,1.5c0.5,0.5,0.6,1.3,1,2c0.7,1.2,2,2.9,3.2,3.7
		c1.3,1,2.6,2,3.9,2.8c2.4,1.5,5.1,2.3,7.4,3.8c1.4,0.9,2.7,2,4,2.9c0.7,0.5,1.1,1.3,2,1.6v-0.2c-0.4-0.6-0.6-1.3-1-2
		c-0.6-0.6-1.2-1.2-1.8-1.8c-1.8-2.4-4-4.5-6.4-6.2c-2-1.4-6.2-3.2-7-5.5c0,0-0.1-0.1-0.1-0.1c1.3-0.1,2.9-0.6,4.2-1
		c2.1-0.6,4-0.4,6.1-1c1-0.2,2-0.6,2.9-0.9v-0.6c-1.1-1.1-1.9-2.6-3.1-3.6c-3.1-2.7-6.6-5.3-10.1-7.5c-1.9-1.2-4.3-2-6.4-3.1
		c-0.7-0.4-2-0.6-2.4-1.2c-1.1-1.3-1.7-3.1-2.5-4.7c-1.8-3.4-3.5-7.1-5-10.7c-1.1-2.4-1.8-4.8-3.1-7c-6.3-10.4-13.2-16.8-23.7-23
		c-2.3-1.3-5-1.8-7.8-2.5c-1.5-0.1-3.1-0.2-4.6-0.2c-1-0.4-2-1.6-2.8-2.2C17,7.3,8,2.5,5.4,8.9c-1.7,4,2.4,7.9,3.9,9.9
		c1,1.4,2.4,3,3.1,4.6c0.4,1,0.6,2.2,1,3.3c1,2.7,1.9,5.7,3.2,8.2c0.7,1.3,1.4,2.6,2.3,3.8c0.5,0.7,1.3,1,1.5,2.1
		c-0.9,1.2-0.9,3.1-1.4,4.6c-2.2,6.9-1.3,15.5,1.8,20.6c1,1.5,3.3,4.9,6.4,3.6c2.8-1.1,2.1-4.6,2.9-7.7c0.2-0.7,0.1-1.2,0.4-1.7v0.1
		c0.9,1.7,1.7,3.4,2.5,5.1c1.9,3,5.2,6.1,8,8.2c1.5,1.1,2.6,3,4.5,3.7v-0.2h-0.1c-0.4-0.6-0.9-0.8-1.4-1.2c-1.1-1.1-2.3-2.5-3.2-3.7
		c-2.6-3.4-4.8-7.2-6.9-11.2c-1-1.9-1.8-4-2.6-5.9c-0.4-0.7-0.4-1.8-1-2.2c-0.9,1.3-2.3,2.5-2.9,4.2c-1.2,2.6-1.3,5.9-1.7,9.3
		c-0.2,0.1-0.1,0-0.2,0.1c-2-0.5-2.6-2.5-3.4-4.2C20.1,58,19.8,51,21.4,45.9c0.4-1.3,2.3-5.3,1.5-6.6c-0.4-1.2-1.6-1.8-2.3-2.8
		c-0.8-1.2-1.7-2.6-2.2-3.9c-1.5-3.4-2.2-7.2-3.8-10.7c-0.7-1.6-2-3.3-3.1-4.7c-1.2-1.7-2.4-2.8-3.4-4.8C8,11.8,7.5,10.7,8,10
		c0.1-0.5,0.4-0.7,0.9-0.8c0.8-0.7,3.1,0.2,3.9,0.6c2.3,0.9,4.2,1.8,6.1,3.1c0.9,0.6,1.8,1.8,2.9,2.1H23c2,0.4,4.2,0.1,6,0.7
		c3.2,1,6.2,2.6,8.8,4.2c8,5.1,14.6,12.3,19.1,21c0.7,1.4,1,2.7,1.7,4.2c1.3,3,2.9,6.1,4.2,9c1.3,2.9,2.5,5.8,4.3,8.2
		c0.9,1.3,4.6,2,6.2,2.6c1.2,0.6,3.1,1,4.2,1.7c2.1,1.3,4.2,2.8,6.1,4.2C84.7,71.5,87.7,73,87.9,74.2"/>
	<path class="st0" d="M25.5,20.9c-1,0-1.8,0.1-2.5,0.3v0.1h0.1c0.5,1,1.4,1.7,2,2.5c0.5,1,0.9,2,1.4,2.9c0.1-0.1,0.1-0.1,0.1-0.1
		c0.9-0.6,1.3-1.6,1.3-3.1c-0.4-0.4-0.4-0.9-0.7-1.3C26.7,21.7,26,21.4,25.5,20.9"/>
</g>
</svg>
