<?xml version="1.0" encoding="utf-8"?>
<svg version="1.1" width="100" height="100" xmlns="http://www.w3.org/2000/svg">
<style type="text/css">
	.st0{fill:#8892BF;}
</style>
<g id="php">
	<path class="st0" d="M12.1,36.9h13.3c3.9,0,6.8,1.2,8.5,3.4c1.8,2.2,2.3,5.3,1.7,9.1c-0.2,1.8-0.7,3.5-1.5,5.2
		c-0.8,1.7-1.8,3.2-3.2,4.6c-1.7,1.7-3.4,2.8-5.3,3.3c-1.9,0.5-3.9,0.7-5.9,0.7h-6l-1.9,9.5H5L12.1,36.9L12.1,36.9 M17.9,42.6
		l-3,14.9c0.2,0,0.4,0,0.6,0c0.2,0,0.5,0,0.7,0c3.2,0,5.8-0.3,8-0.9c2.1-0.7,3.6-3.1,4.3-7.3c0.6-3.5,0-5.5-1.8-6
		c-1.8-0.5-4-0.8-6.6-0.7c-0.4,0-0.8,0-1.1,0C18.6,42.6,18.3,42.6,17.9,42.6L17.9,42.6"/>
	<path class="st0" d="M43.6,27.4h6.9l-1.9,9.5h6.2c3.4,0.1,5.9,0.8,7.6,2.1c1.7,1.3,2.2,3.9,1.5,7.6l-3.3,16.6h-7l3.2-15.8
		c0.3-1.7,0.2-2.8-0.3-3.5c-0.5-0.7-1.7-1-3.4-1l-5.5,0l-4.1,20.5h-6.9L43.6,27.4L43.6,27.4"/>
	<path class="st0" d="M71.2,36.9h13.3c3.9,0,6.8,1.2,8.5,3.4c1.8,2.2,2.3,5.3,1.7,9.1c-0.2,1.8-0.7,3.5-1.5,5.2
		c-0.8,1.7-1.8,3.2-3.2,4.6c-1.7,1.7-3.4,2.8-5.3,3.3c-1.9,0.5-3.9,0.7-5.9,0.7h-6L71,72.6H64L71.2,36.9L71.2,36.9 M77,42.6l-3,14.9
		c0.2,0,0.4,0,0.6,0c0.2,0,0.5,0,0.7,0c3.2,0,5.8-0.3,8-0.9c2.1-0.7,3.6-3.1,4.3-7.3c0.6-3.5,0-5.5-1.8-6c-1.8-0.5-4-0.8-6.6-0.7
		c-0.4,0-0.8,0-1.1,0C77.7,42.6,77.3,42.6,77,42.6L77,42.6"/>
</g>
</svg>
