<?xml version="1.0" encoding="utf-8"?>
<svg version="1.1" width="100" height="100" xmlns="http://www.w3.org/2000/svg">
<style type="text/css">
	.st0{fill:#CA2127;}
</style>
<g id="pinterst">
	<path class="st0" d="M50,5C25.2,5,5,25.2,5,50c0,18.8,11.5,34.9,27.9,41.7C31,77,36.4,65.8,38.9,54c-4.4-7,0.5-21.2,9.8-17.7
		c11.3,4.3-9.8,26.1,4.4,28.8C67.9,68,74,40.6,64.8,31.7C51.4,18.8,26,31.4,29.2,49.8c0.4,2.3,4.1,5.9,4.1,5.9s-0.2,2.2-1.2,6.2
		c-8.5-1.8-12.1-8.2-11.8-16.7c0.5-14,13.1-23.7,25.8-25.1h0c16-1.7,31.1,5.6,33.2,20c2.3,16.2-7.2,33.8-24.4,32.5
		c-4.6-0.3-6.6-2.5-10.2-4.6c-1.9,9.7-4.3,18.9-11,24.1c5,1.9,10.5,3,16.2,3c24.8,0,45-20.2,45-45S74.8,5,50,5z"/>
</g>
</svg>
