<?xml version="1.0" encoding="utf-8"?>
<svg version="1.1" width="100" height="100" xmlns="http://www.w3.org/2000/svg">
<style type="text/css">
	.st0{fill:url(#SVGID_1_);}
	.st1{fill:url(#SVGID_2_);}
</style>
<g id="python">
	
		<linearGradient id="SVGID_1_" gradientUnits="userSpaceOnUse" x1="262.8597" y1="682.0263" x2="262.8958" y2="682.0263" gradientTransform="matrix(1849.2675 0 0 -1853.3917 -486092.9063 1264100.5)">
		<stop  offset="0" style="stop-color:#387EB8"/>
		<stop  offset="1" style="stop-color:#366994"/>
	</linearGradient>
	<path class="st0" d="M49.7,5.2c-22.8,0-21.4,9.9-21.4,9.9l0,10.3h21.8v3.1H19.6c0,0-14.6-1.7-14.6,21.4c0,23.1,12.8,22.2,12.8,22.2
		h7.6V61.4c0,0-0.4-12.8,12.6-12.8h21.6c0,0,12.1,0.2,12.1-11.7V17.2C71.7,17.2,73.6,5.2,49.7,5.2z M37.7,12.1
		c2.2,0,3.9,1.8,3.9,3.9c0,0,0,0,0,0c0,2.2-1.8,3.9-3.9,3.9c0,0,0,0,0,0c-2.2,0-3.9-1.8-3.9-3.9c0,0,0,0,0,0
		C33.7,13.9,35.5,12.1,37.7,12.1C37.6,12.1,37.7,12.1,37.7,12.1z"/>
	
		<linearGradient id="SVGID_2_" gradientUnits="userSpaceOnUse" x1="262.5306" y1="682.3631" x2="262.5564" y2="682.3386" gradientTransform="matrix(1849.2671 0 0 -1853.3918 -485448.375 1264728)">
		<stop  offset="0" style="stop-color:#FFE052"/>
		<stop  offset="1" style="stop-color:#FFC331"/>
	</linearGradient>
	<path class="st1" d="M50.3,94.8c22.8,0,21.4-9.9,21.4-9.9l0-10.3H49.9v-3.1h30.5c0,0,14.6,1.7,14.6-21.4
		c0-23.1-12.8-22.2-12.8-22.2h-7.6v10.7c0,0,0.4,12.8-12.6,12.8H40.4c0,0-12.1-0.2-12.1,11.7v19.7C28.3,82.8,26.4,94.8,50.3,94.8
		L50.3,94.8z M62.3,87.9c-2.2,0-3.9-1.8-3.9-3.9c0,0,0,0,0,0c0-2.2,1.8-3.9,3.9-3.9c0,0,0,0,0,0c2.2,0,3.9,1.8,3.9,3.9c0,0,0,0,0,0
		C66.3,86.1,64.5,87.9,62.3,87.9C62.4,87.9,62.3,87.9,62.3,87.9L62.3,87.9z"/>
</g>
</svg>
