<?xml version="1.0" encoding="utf-8"?>
<svg version="1.1" width="100" height="100" xmlns="http://www.w3.org/2000/svg">
<style type="text/css">
	.st0{fill:#912626;}
	.st1{fill:#C6302B;}
	.st2{fill:#FFFFFF;}
	.st3{fill:#621B1C;}
	.st4{fill:#9A2928;}
</style>
<g id="redis">
	<path class="st0" d="M91.5,70.8c-4.8,2.5-29.7,12.7-35,15.5C51.2,89,48.3,89,44.1,87c-4.2-2-30.7-12.7-35.4-15
		C6.3,70.9,5,69.9,5,69v-9.1c0,0,34.5-7.5,40-9.5c5.6-2,7.5-2.1,12.2-0.3c4.7,1.7,33.1,6.8,37.7,8.6l0,9
		C95,68.5,93.9,69.5,91.5,70.8"/>
	<path class="st1" d="M91.5,61.7c-4.8,2.5-29.7,12.7-35,15.5C51.2,80,48.3,80,44.1,78c-4.2-2-30.7-12.7-35.4-15
		c-4.8-2.3-4.9-3.8-0.2-5.7c4.7-1.8,31-12.2,36.6-14.2c5.6-2,7.5-2.1,12.2-0.3c4.7,1.7,29.5,11.6,34.1,13.3
		C96.1,57.8,96.3,59.2,91.5,61.7"/>
	<path class="st0" d="M91.5,56c-4.8,2.5-29.7,12.7-35,15.5c-5.3,2.8-8.2,2.7-12.4,0.7c-4.2-2-30.7-12.7-35.4-15
		c-2.4-1.1-3.6-2.1-3.6-3v-9.1c0,0,34.5-7.5,40-9.5c5.6-2,7.5-2.1,12.2-0.3c4.7,1.7,33.1,6.8,37.7,8.6l0,9
		C95,53.8,93.9,54.8,91.5,56"/>
	<path class="st1" d="M91.5,47c-4.8,2.5-29.7,12.7-35,15.5c-5.3,2.8-8.2,2.7-12.4,0.7c-4.2-2-30.7-12.7-35.4-15
		c-4.8-2.3-4.9-3.8-0.2-5.7c4.7-1.8,31-12.2,36.6-14.2c5.6-2,7.5-2.1,12.2-0.3c4.7,1.7,29.5,11.6,34.1,13.3
		C96.1,43.1,96.3,44.5,91.5,47"/>
	<path class="st0" d="M91.5,40.8c-4.8,2.5-29.7,12.7-35,15.5C51.2,59,48.3,59,44.1,57c-4.2-2-30.7-12.7-35.4-15
		C6.3,40.9,5,39.9,5,39v-9.1c0,0,34.5-7.5,40-9.5c5.6-2,7.5-2.1,12.2-0.3c4.7,1.7,33.1,6.8,37.7,8.6l0,9
		C95,38.5,93.9,39.5,91.5,40.8"/>
	<path class="st1" d="M91.5,31.7c-4.8,2.5-29.7,12.7-35,15.5C51.2,50,48.3,50,44.1,48c-4.2-2-30.7-12.7-35.4-15
		c-4.8-2.3-4.9-3.8-0.2-5.7c4.7-1.8,31-12.2,36.6-14.2c5.6-2,7.5-2.1,12.2-0.3c4.7,1.7,29.5,11.6,34.1,13.3
		C96.1,27.8,96.3,29.2,91.5,31.7"/>
	<path class="st2" d="M61,22.9l-7.7,0.8l-1.7,4.2l-2.8-4.7l-8.9-0.8l6.7-2.4l-2-3.7l6.2,2.4l5.9-1.9L55,20.6L61,22.9 M51.1,43.1
		l-14.4-6l20.7-3.2L51.1,43.1 M31,25.2c6.1,0,11.1,1.9,11.1,4.3c0,2.4-5,4.3-11.1,4.3S20,31.9,20,29.5C20,27.1,24.9,25.2,31,25.2"/>
	<path class="st3" d="M70.1,24l12.2,4.8l-12.2,4.8L70.1,24"/>
	<path class="st4" d="M56.6,29.4L70.1,24l0,9.7l-1.3,0.5L56.6,29.4"/>
</g>
</svg>
