<?xml version="1.0" encoding="utf-8"?>
<svg version="1.1" width="100" height="100" xmlns="http://www.w3.org/2000/svg">
<style type="text/css">
	.st0{fill:#77BC1F;}
</style>
<g id="spring">
	<path class="st0" d="M86.8,9.7c-1.3,3-2.9,5.9-4.8,8.5C73.6,9.8,62.1,5,50.1,5C25.4,5,5,25.4,5,50.2c0,12.4,5.1,24.2,14,32.7
		l1.7,1.5C28.8,91.2,39.1,95,49.8,95c23.5,0,43.3-18.4,45-41.9C96,41.5,92.6,27,86.8,9.7L86.8,9.7z M25.4,83.2
		c-0.7,0.9-1.8,1.4-3,1.4c-2.1,0-3.9-1.7-3.9-3.9c0-2.1,1.7-3.9,3.9-3.9c0.9,0,1.7,0.3,2.4,0.9C26.5,79.1,26.8,81.5,25.4,83.2
		L25.4,83.2z M86.6,69.6c-11.1,14.8-34.9,9.8-50.1,10.6c0,0-2.7,0.2-5.4,0.6c0,0,1-0.4,2.3-0.9c10.7-3.7,15.8-4.5,22.3-7.8
		C67.9,65.8,80,52.2,82.5,38c-4.7,13.7-18.8,25.4-31.7,30.1c-8.8,3.3-24.8,6.4-24.8,6.4l-0.6-0.3C14.6,69,14.3,45.4,34,37.8
		c8.6-3.3,16.9-1.5,26.2-3.7c10-2.4,21.5-9.8,26.2-19.6C91.7,30.1,98,54.5,86.6,69.6L86.6,69.6z"/>
</g>
</svg>
