<?xml version="1.0" encoding="utf-8"?>
<svg version="1.1" width="100" height="100" xmlns="http://www.w3.org/2000/svg">
<style type="text/css">
	.st0{fill:#BCBBBB;}
	.st1{fill:#F48024;}
</style>
<g>
	<path class="st0" d="M75.2,85.3V63.4H85V95H12V63.4h9.7v21.9"/>
	<path class="st1" d="M68.2,68.2l1.7-7.2l-39.2-8.1L29,60.9L68.2,68.2z M34.1,42l36.5,17l3.4-7.3l-36.5-17L34.1,42z M44.4,24
		l30.9,25.8l5.1-6.1L49.5,17.9C49.5,17.9,44.4,24,44.4,24z M64.3,5l-6.6,4.9l24.1,32.4l6.6-4.9L64.3,5z M29,78h38.9v-7.3H29V78z"/>
</g>
</svg>
