<?xml version="1.0" encoding="utf-8"?>
<svg version="1.1" width="100" height="100" xmlns="http://www.w3.org/2000/svg">
<style type="text/css">
	.st0{fill:#F05138;}
</style>
<g id="swift">
	<path class="st0" d="M87.5,66.4C87.5,66.4,87.5,66.4,87.5,66.4c0.1-0.5,0.3-0.9,0.4-1.4c4.9-19.7-7.1-43-27.6-55.3
		c9,12.1,12.9,26.8,9.4,39.7c-0.3,1.1-0.7,2.2-1.1,3.3c-0.5-0.3-1-0.6-1.8-1.1c0,0-20.3-12.6-42.4-34.8
		c-0.6-0.6,11.7,17.6,25.7,32.4c-6.6-3.7-25-17.1-36.6-27.7c1.4,2.4,3.1,4.7,5,6.9C28.3,40.8,41,56,56.1,67.7
		c-10.7,6.5-25.7,7-40.7,0C11.7,66,8.2,63.9,5,61.5c6.3,10.2,16.1,18.9,28,24c14.2,6.1,28.3,5.7,38.8,0.1l0,0c0,0,0.1-0.1,0.2-0.1
		c0.4-0.2,0.9-0.5,1.3-0.7c5-2.6,15-5.3,20.4,5.1C95,92.5,97.7,79,87.5,66.4z"/>
</g>
</svg>
