<?xml version="1.0" encoding="utf-8"?>
<svg version="1.1" width="100" height="100" xmlns="http://www.w3.org/2000/svg">
<style type="text/css">
	.st0{fill:#FF8F29;}
	.st1{fill:#FF421A;}
</style>
<g id="taobao">
	<path class="st0" d="M20.7,34.2c-4.5,0-8.2-3.4-8.2-7.5c0-4.1,3.7-7.5,8.2-7.5c4.5,0,8.2,3.4,8.2,7.5
		C28.9,30.8,25.2,34.2,20.7,34.2L20.7,34.2z"/>
	<path class="st1" d="M93.6,68.3c-1.5,11.2-7.1,12.8-14.6,13c-5.5,0.1-10.9,0-16.4,0c-0.1-1.6-0.3-3.2-0.4-4.9c3.4,0,6.8,0.1,10.2,0
		c6.9-0.3,10-2.9,10.2-11L83,49.6c0.2-8.7,0.8-18.1-8.4-19.9c-6.7-1.3-13.6,0.5-20.4,0.8c-1.4,0.2-2.7,0.5-4,0.9l5.3,4l-4.3,4.1
		h26.9v5.3h-16v6.1h16v4.5h-16v10.5c2.5-0.6,5-1.2,7.5-1.6c-0.9-1.4-1.8-2.7-2.7-4.1c2.1-0.8,4.1-1.6,6.2-2.4c4.9,3,6.8,7,5.8,12.2
		c-1.9,1.6-3.8,3.2-5.8,4.9c-1-1.8-2.1-3.5-3.1-5.3c-29.4,10.6-41.7,7-36.8-10.6H44c0,7.2,1.4,8.3,5.3,8.5c0.1,0,0.3,0,0.4,0V55.3
		h-16v-4.5h16v-6.1h-3.1v-1L40,50l-5.8-2.8L45.4,33c-4.8,2-8.7,5-11.5,8.8c-0.4,0.9-0.9,1.9-1.3,2.8c-2.8-2-5.6-4.1-8.4-6.1
		c4.6-6.9,9.2-13.8,13.7-20.7c3.8,1.2,7.7,2.4,11.5,3.7c-0.9,2-1.8,4.1-2.7,6.1c18.2-8,46.4-8.9,47.9,9.3
		C95.5,48.7,95,58.5,93.6,68.3L93.6,68.3z"/>
	<path class="st1" d="M26.3,63.8c-3.9,7.3-5.6,12.8-8.4,18.3C13.6,79,9.3,75.8,5,72.7c4.7-3.7,10.1-6.7,14.2-11
		c7.5-7.9-0.9-13.9-10.6-19.1c1.9-2.2,3.8-4.3,5.8-6.5C30.1,45.4,31.9,53.3,26.3,63.8L26.3,63.8z"/>
</g>
</svg>
