<?xml version="1.0" encoding="utf-8"?>
<svg version="1.1" width="100" height="100" xmlns="http://www.w3.org/2000/svg">
<style type="text/css">
	.st0{fill:#C0272D;}
</style>
<g id="w3school">
	<path class="st0" d="M52.6,95c-13.3-7.6-26.5-15.1-39.7-22.6c0-6.7,0-13.3,0-20.2c3.4,0,6.8,0,10.3,0c0,4.8,0,9.5,0,14.4
		c9.8,5.6,19.5,11.1,29.4,16.8c9.6-5.4,19.1-10.9,28.8-16.4c0-11.2,0-22.4,0-34C72,27.7,62.5,22.3,52.6,16.6
		c-7.9,4.5-15.9,9-24.2,13.8c2.9,1.7,5.4,3.1,8.2,4.7c5.8-3.2,11.7-6.4,17.7-9.8c1.3,2.2,2.5,4.3,3.8,6.7c-1,3.8-3.3,13-3.3,13
		c0.5-0.6,1.8-0.9,2.4-1c6.2-0.7,10.9,1.4,13.7,6.4c3.1,5.5,2.9,10.8-1,15.7c-5.5,7-13.1,8.7-21.8,8.2c-0.3-5.2-0.2-5.6-0.3-8.8
		c2.6,0.2,5.1,0.2,7.6-0.3c2.2-0.4,4.3-1.2,5.9-2.7c1.9-1.8,2.9-3.9,1.6-6.5c-1.3-2.6-3.5-3.5-6.3-3.1c-3.5,0.5-6.1,2.8-8.8,5.3
		c-1.2-2.2-2.4-4.2-3.5-6.2c1-4,1.9-7.9,3.1-12.5c-4.2,2.5-7.9,4.6-11.8,6.8c-9-5.3-18-10.5-27.5-16C23,21.9,37.7,13.5,52.6,5
		C65.6,12.4,78.8,19.9,92,27.4c0,15,0,29.9,0,45.1C79,80,65.8,87.5,52.6,95z"/>
</g>
</svg>
