<?xml version="1.0" encoding="utf-8"?>
<svg version="1.1" width="100" height="100" xmlns="http://www.w3.org/2000/svg">
<style type="text/css">
	.st0{fill:#F16850;}
	.st1{fill:#FD694F;}
	.st2{fill:#FF3413;}
	.st3{fill:#DC1D23;}
	.st4{fill:#FF9281;}
	.st5{fill:#FF8B79;}
	.st6{fill:#EF5240;}
	.st7{fill:#FF482C;}
	.st8{fill:#EC2101;}
	.st9{fill:#D21C22;}
	.st10{fill:#C90901;}
	.st11{fill:#B6171E;}
	.st12{fill:#B4151B;}
	.st13{fill:#E63320;}
	.st14{fill:#FF4527;}
	.st15{fill:#FD684D;}
	.st16{fill:#FD745C;}
</style>
<g id="wolframalpha">
	<path class="st0" d="M93.8,64l-18.7,3.9l2,18.5l-17.5-7.5L50,95l-9.6-16.1l-17.5,7.5l2-18.5L6.2,64L19,50L6.2,36l18.7-3.9l-2-18.5
		l17.5,7.5L50,5l9.6,16.1l17.5-7.5l-2,18.5L93.8,36L81,50"/>
	<path class="st1" d="M50,33.1l-9.6-12l-17.5-7.5l10.4,13.8"/>
	<path class="st2" d="M24.8,32.1L6.2,36L19,50l14.7-5.3"/>
	<path class="st3" d="M33.3,27.4L22.9,13.6l2,18.5l8.8,12.6"/>
	<path class="st4" d="M59.6,21.1L50,5l-9.6,16.1l9.6,12"/>
	<path class="st5" d="M81,50l12.8-14l-18.7-3.9l-9,12.6"/>
	<path class="st1" d="M66.1,44.7l9-12.6l2-18.5L66.7,27.4"/>
	<path class="st6" d="M66.7,27.4l10.4-13.8l-17.5,7.5l-9.6,12"/>
	<path class="st7" d="M76.9,58.3L93.8,64L81,50l-14.9-5.3"/>
	<path class="st8" d="M33.7,44.7L19,50L6.2,64l16.9-5.7"/>
	<path class="st9" d="M50,77.5V95l9.6-16.1L60,63.2"/>
	<path class="st10" d="M76.9,58.3L60,63.2l15.1,4.7L93.8,64"/>
	<path class="st8" d="M59.6,78.9l17.5,7.5l-2-18.5L60,63.2"/>
	<path class="st11" d="M23.1,58.3L6.2,64l18.7,3.9L40,63.2"/>
	<path class="st12" d="M40,63.2l0.4,15.7L50,95V77.5"/>
	<path class="st9" d="M24.8,67.9l-2,18.5l17.5-7.5L40,63.2"/>
	<path class="st13" d="M66.1,44.7l0.6-17.3L50,33.1V50"/>
	<path class="st14" d="M50,33.1l-16.7-5.7l0.4,17.3L50,50"/>
	<path class="st4" d="M40,63.2l10,14.3l10-14.3L50,50"/>
	<path class="st15" d="M50,50l10,13.2l16.9-4.9L66.1,44.7"/>
	<path class="st16" d="M33.7,44.7L23.1,58.3L40,63.2L50,50"/>
</g>
</svg>
