<?xml version="1.0" encoding="utf-8"?>
<svg version="1.1" width="100" height="100" xmlns="http://www.w3.org/2000/svg">
<style type="text/css">
	.st0{fill:#E8E0E0;}
	.st1{fill:#FF0000;}
</style>
<g id="youtube">
	<path class="st0" d="M65,49.1c-8.3-4.4-24.2-12.7-24.2-12.7L62,50.7C62,50.7,58.1,52.9,65,49.1L65,49.1z"/>
	<path class="st1" d="M42.3,81.5c-17.1-0.3-23-0.6-26.6-1.3c-2.4-0.5-4.6-1.6-6.1-3.2c-1.2-1.2-2.2-3-2.9-5.6
		c-0.6-2.1-0.9-3.9-1.2-8.2c-0.5-9.7-0.7-17.7,0-26.5C6,31.8,6.3,26,9.9,22.6c1.7-1.6,3.7-2.6,6-3c3.5-0.7,18.6-1.2,34.1-1.2
		c15.5,0,30.6,0.5,34.1,1.2c2.8,0.5,5.5,2.1,7,4.2c3.3,5.3,3.4,11.8,3.7,16.9c0.1,2.4,0.1,16.3,0,18.7c-0.5,8.1-1,10.9-2.2,13.9
		c-0.7,1.9-1.4,2.9-2.5,4c-1.7,1.7-3.9,2.8-6.3,3.2C69.2,81.5,56.6,81.8,42.3,81.5L42.3,81.5z M65,49.1c-8.3-4.4-16.2-8.5-24.2-12.7
		v25.3C49.3,57.1,58.2,52.8,65,49.1L65,49.1L65,49.1z"/>
</g>
</svg>
