<?xml version="1.0" encoding="utf-8"?>
<svg version="1.1" width="100" height="100" xmlns="http://www.w3.org/2000/svg">
<style type="text/css">
	.st0{fill:#636062;}
	.st1{fill:#D3D2D3;}
</style>
<g id="zlibrary">
	<path class="st0" d="M69.1,8c0,0-14.2,38.7-16.8,45.7c-1.6,0-2.8,0-4.6,0C44.9,46.2,31,7.8,31,7.8L19.5,5l21.7,58.9h17.7L80.5,5
		L69.1,8z"/>
	<polygon class="st1" points="51.4,52.3 48.5,52.3 32.9,8.7 33.7,8.4 47,45.8 38.4,8.8 39.3,8.6 48.8,49.5 44,8.7 45.1,8.6 
		49.6,50.6 49.6,8.6 50.6,8.6 50.5,50.6 54.7,8.5 55.7,8.6 51.4,49.5 60,8.4 61,8.6 52.9,45.8 66,8.2 66.9,8.5 	"/>
	<polygon class="st0" points="54.5,68.9 54.5,95 49.7,90.9 44.9,94.9 44.9,68.9 	"/>
</g>
</svg>
